<?plantuml 1.2026.1beta5?><svg xmlns="http://www.w3.org/2000/svg" xmlns:xlink="http://www.w3.org/1999/xlink" contentStyleType="text/css" data-diagram-type="CLASS" height="1247px" preserveAspectRatio="none" style="width:2761px;height:1247px;background:#FFFFFF;" version="1.1" viewBox="0 0 2761 1247" width="2761px" zoomAndPan="magnify"><defs><filter height="300%" id="f1tyquudqmp983" width="300%" x="-1" y="-1"><feGaussianBlur result="blurOut" stdDeviation="2"/><feColorMatrix in="blurOut" result="blurOut2" type="matrix" values="0 0 0 0 0 0 0 0 0 0 0 0 0 0 0 0 0 0 .4 0"/><feOffset dx="4" dy="4" in="blurOut2" result="blurOut3"/><feBlend in="SourceGraphic" in2="blurOut3" mode="normal"/></filter></defs><g><!--class Users--><g class="entity" data-qualified-name="Users" data-source-line="17" id="ent0002"><rect fill="#F1F1F1" filter="url(#f1tyquudqmp983)" height="196.9688" rx="2.5" ry="2.5" style="stroke:#181818;stroke-width:0.5;" width="183.9238" x="743" y="646.64"/><text fill="#000000" font-family="sans-serif" font-size="14" lengthAdjust="spacing" textLength="39.2041" x="815.3599" y="664.6351">Users</text><line style="stroke:#181818;stroke-width:0.5;" x1="744" x2="925.9238" y1="672.9369" y2="672.9369"/><g data-visibility-modifier="IE_MANDATORY"><ellipse cx="754" cy="686.5853" fill="#000000" rx="3" ry="3" style="stroke:#000000;stroke-width:1;"/></g><path d="M770.4167,680.4004 C768.8067,680.4004 767.5,681.7071 767.5,683.3171 C767.5,683.5038 767.5,683.6904 767.535,683.8654 L764,687.4004 L764,689.7338 L767.5,689.7338 L767.5,687.4004 L769.8333,687.4004 L769.8333,686.2338 L769.8683,686.1988 C770.0433,686.2338 770.23,686.2338 770.4167,686.2338 C772.0267,686.2338 773.3333,684.9271 773.3333,683.3171 C773.3333,681.7071 772.0267,680.4004 770.4167,680.4004 M771,681.5671 C771.6417,681.5671 772.1667,682.0921 772.1667,682.7338 C772.1667,683.3754 771.6417,683.9004 771,683.9004 C770.3583,683.9004 769.8333,683.3754 769.8333,682.7338 C769.8333,682.0921 770.3583,681.5671 771,681.5671" fill="#B8861B"/><text fill="#000000" font-family="sans-serif" font-size="14" font-weight="bold" lengthAdjust="spacing" textLength="56.5195" x="779.2074" y="689.932">user_id</text><text fill="#000000" font-family="sans-serif" font-size="14" lengthAdjust="spacing" textLength="56.9023" x="835.7269" y="689.932">: BIGINT</text><line style="stroke:#181818;stroke-width:1;" x1="744" x2="925.9238" y1="697.2338" y2="697.2338"/><g data-visibility-modifier="IE_MANDATORY"><ellipse cx="754" cy="710.8822" fill="#000000" rx="3" ry="3" style="stroke:#000000;stroke-width:1;"/></g><path d="M770.4167,704.6973 C768.8067,704.6973 767.5,706.004 767.5,707.614 C767.5,707.8006 767.5,707.9873 767.535,708.1623 L764,711.6973 L764,714.0306 L767.5,714.0306 L767.5,711.6973 L769.8333,711.6973 L769.8333,710.5306 L769.8683,710.4956 C770.0433,710.5306 770.23,710.5306 770.4167,710.5306 C772.0267,710.5306 773.3333,709.224 773.3333,707.614 C773.3333,706.004 772.0267,704.6973 770.4167,704.6973 M771,705.864 C771.6417,705.864 772.1667,706.389 772.1667,707.0306 C772.1667,707.6723 771.6417,708.1973 771,708.1973 C770.3583,708.1973 769.8333,707.6723 769.8333,707.0306 C769.8333,706.389 770.3583,705.864 771,705.864" fill="#AAAAAA"/><text fill="#000000" font-family="sans-serif" font-size="14" lengthAdjust="spacing" textLength="123.9355" x="778.7835" y="714.2289">tariff_id: INTEGER</text><line style="stroke:#181818;stroke-width:1;" x1="744" x2="925.9238" y1="721.5306" y2="721.5306"/><text fill="#000000" font-family="sans-serif" font-size="14" lengthAdjust="spacing" textLength="140.1436" x="749" y="738.5257">telegram_id: BIGINT</text><text fill="#000000" font-family="sans-serif" font-size="14" lengthAdjust="spacing" textLength="171.9238" x="749" y="754.8226">subscription_start: DATE</text><text fill="#000000" font-family="sans-serif" font-size="14" lengthAdjust="spacing" textLength="165.6895" x="749" y="771.1195">subscription_end: DATE</text><text fill="#000000" font-family="sans-serif" font-size="14" lengthAdjust="spacing" textLength="138.2432" x="749" y="787.4164">is_active: BOOLEAN</text><text fill="#000000" font-family="sans-serif" font-size="14" lengthAdjust="spacing" textLength="165.0127" x="749" y="803.7132">created_at: TIMESTAMP</text><text fill="#000000" font-family="sans-serif" font-size="14" lengthAdjust="spacing" textLength="169.5928" x="749" y="820.0101">updated_at: TIMESTAMP</text><text fill="#000000" font-family="sans-serif" font-size="14" lengthAdjust="spacing" textLength="164.3701" x="749" y="836.307">deleted_at: TIMESTAMP</text></g><!--class Sessions--><g class="entity" data-qualified-name="Sessions" data-source-line="31" id="ent0003"><rect fill="#F1F1F1" filter="url(#f1tyquudqmp983)" height="262.1563" rx="2.5" ry="2.5" style="stroke:#181818;stroke-width:0.5;" width="317.2041" x="1058" y="292.64"/><text fill="#000000" font-family="sans-serif" font-size="14" lengthAdjust="spacing" textLength="60.71" x="1186.2471" y="310.6351">Sessions</text><line style="stroke:#181818;stroke-width:0.5;" x1="1059" x2="1374.2041" y1="318.9369" y2="318.9369"/><g data-visibility-modifier="IE_MANDATORY"><ellipse cx="1069" cy="332.5853" fill="#000000" rx="3" ry="3" style="stroke:#000000;stroke-width:1;"/></g><path d="M1085.4167,326.4004 C1083.8067,326.4004 1082.5,327.7071 1082.5,329.3171 C1082.5,329.5038 1082.5,329.6904 1082.535,329.8654 L1079,333.4004 L1079,335.7338 L1082.5,335.7338 L1082.5,333.4004 L1084.8333,333.4004 L1084.8333,332.2338 L1084.8683,332.1988 C1085.0433,332.2338 1085.23,332.2338 1085.4167,332.2338 C1087.0267,332.2338 1088.3333,330.9271 1088.3333,329.3171 C1088.3333,327.7071 1087.0267,326.4004 1085.4167,326.4004 M1086,327.5671 C1086.6417,327.5671 1087.1667,328.0921 1087.1667,328.7338 C1087.1667,329.3754 1086.6417,329.9004 1086,329.9004 C1085.3583,329.9004 1084.8333,329.3754 1084.8333,328.7338 C1084.8333,328.0921 1085.3583,327.5671 1086,327.5671" fill="#B8861B"/><text fill="#000000" font-family="sans-serif" font-size="14" font-weight="bold" lengthAdjust="spacing" textLength="80.6982" x="1094.2074" y="335.932">session_id</text><text fill="#000000" font-family="sans-serif" font-size="14" lengthAdjust="spacing" textLength="56.9023" x="1174.9056" y="335.932">: BIGINT</text><line style="stroke:#181818;stroke-width:1;" x1="1059" x2="1374.2041" y1="343.2338" y2="343.2338"/><g data-visibility-modifier="IE_MANDATORY"><ellipse cx="1069" cy="356.8822" fill="#000000" rx="3" ry="3" style="stroke:#000000;stroke-width:1;"/></g><path d="M1085.4167,350.6973 C1083.8067,350.6973 1082.5,352.004 1082.5,353.614 C1082.5,353.8006 1082.5,353.9873 1082.535,354.1623 L1079,357.6973 L1079,360.0306 L1082.5,360.0306 L1082.5,357.6973 L1084.8333,357.6973 L1084.8333,356.5306 L1084.8683,356.4956 C1085.0433,356.5306 1085.23,356.5306 1085.4167,356.5306 C1087.0267,356.5306 1088.3333,355.224 1088.3333,353.614 C1088.3333,352.004 1087.0267,350.6973 1085.4167,350.6973 M1086,351.864 C1086.6417,351.864 1087.1667,352.389 1087.1667,353.0306 C1087.1667,353.6723 1086.6417,354.1973 1086,354.1973 C1085.3583,354.1973 1084.8333,353.6723 1084.8333,353.0306 C1084.8333,352.389 1085.3583,351.864 1086,351.864" fill="#AAAAAA"/><text fill="#000000" font-family="sans-serif" font-size="14" lengthAdjust="spacing" textLength="165.6416" x="1093.7835" y="360.2289">file_format_id: INTEGER</text><g data-visibility-modifier="IE_MANDATORY"><ellipse cx="1069" cy="373.1791" fill="#000000" rx="3" ry="3" style="stroke:#000000;stroke-width:1;"/></g><path d="M1085.4167,366.9942 C1083.8067,366.9942 1082.5,368.3008 1082.5,369.9108 C1082.5,370.0975 1082.5,370.2842 1082.535,370.4592 L1079,373.9942 L1079,376.3275 L1082.5,376.3275 L1082.5,373.9942 L1084.8333,373.9942 L1084.8333,372.8275 L1084.8683,372.7925 C1085.0433,372.8275 1085.23,372.8275 1085.4167,372.8275 C1087.0267,372.8275 1088.3333,371.5208 1088.3333,369.9108 C1088.3333,368.3008 1087.0267,366.9942 1085.4167,366.9942 M1086,368.1608 C1086.6417,368.1608 1087.1667,368.6858 1087.1667,369.3275 C1087.1667,369.9692 1086.6417,370.4942 1086,370.4942 C1085.3583,370.4942 1084.8333,369.9692 1084.8333,369.3275 C1084.8333,368.6858 1085.3583,368.1608 1086,368.1608" fill="#AAAAAA"/><text fill="#000000" font-family="sans-serif" font-size="14" lengthAdjust="spacing" textLength="199.2744" x="1093.7835" y="376.5257">document_type_id: INTEGER</text><g data-visibility-modifier="IE_MANDATORY"><ellipse cx="1069" cy="389.4759" fill="#000000" rx="3" ry="3" style="stroke:#000000;stroke-width:1;"/></g><path d="M1085.4167,383.291 C1083.8067,383.291 1082.5,384.5977 1082.5,386.2077 C1082.5,386.3944 1082.5,386.581 1082.535,386.756 L1079,390.291 L1079,392.6244 L1082.5,392.6244 L1082.5,390.291 L1084.8333,390.291 L1084.8333,389.1244 L1084.8683,389.0894 C1085.0433,389.1244 1085.23,389.1244 1085.4167,389.1244 C1087.0267,389.1244 1088.3333,387.8177 1088.3333,386.2077 C1088.3333,384.5977 1087.0267,383.291 1085.4167,383.291 M1086,384.4577 C1086.6417,384.4577 1087.1667,384.9827 1087.1667,385.6244 C1087.1667,386.266 1086.6417,386.791 1086,386.791 C1085.3583,386.791 1084.8333,386.266 1084.8333,385.6244 C1084.8333,384.9827 1085.3583,384.4577 1086,384.4577" fill="#AAAAAA"/><text fill="#000000" font-family="sans-serif" font-size="14" lengthAdjust="spacing" textLength="120.9004" x="1093.7835" y="392.8226">user_id: INTEGER</text><g data-visibility-modifier="IE_MANDATORY"><ellipse cx="1069" cy="405.7728" fill="#000000" rx="3" ry="3" style="stroke:#000000;stroke-width:1;"/></g><path d="M1085.4167,399.5879 C1083.8067,399.5879 1082.5,400.8946 1082.5,402.5046 C1082.5,402.6913 1082.5,402.8779 1082.535,403.0529 L1079,406.5879 L1079,408.9213 L1082.5,408.9213 L1082.5,406.5879 L1084.8333,406.5879 L1084.8333,405.4213 L1084.8683,405.3863 C1085.0433,405.4213 1085.23,405.4213 1085.4167,405.4213 C1087.0267,405.4213 1088.3333,404.1146 1088.3333,402.5046 C1088.3333,400.8946 1087.0267,399.5879 1085.4167,399.5879 M1086,400.7546 C1086.6417,400.7546 1087.1667,401.2796 1087.1667,401.9213 C1087.1667,402.5629 1086.6417,403.0879 1086,403.0879 C1085.3583,403.0879 1084.8333,402.5629 1084.8333,401.9213 C1084.8333,401.2796 1085.3583,400.7546 1086,400.7546" fill="#AAAAAA"/><text fill="#000000" font-family="sans-serif" font-size="14" lengthAdjust="spacing" textLength="167.3574" x="1093.7835" y="409.1195">jurisdiction_id: INTEGER</text><line style="stroke:#181818;stroke-width:1;" x1="1059" x2="1374.2041" y1="416.4213" y2="416.4213"/><text fill="#000000" font-family="sans-serif" font-size="14" lengthAdjust="spacing" textLength="145.6807" x="1064" y="433.4164">file_name: VARCHAR</text><text fill="#000000" font-family="sans-serif" font-size="14" lengthAdjust="spacing" textLength="171.623" x="1064" y="449.7132">file_size_bytes: INTEGER</text><text fill="#000000" font-family="sans-serif" font-size="14" lengthAdjust="spacing" textLength="269.4316" x="1064" y="466.0101">language_code: VARCHAR default 'RU'</text><text fill="#000000" font-family="sans-serif" font-size="14" lengthAdjust="spacing" textLength="305.2041" x="1064" y="482.307">upload_status: VARCHAR default 'PENDING'</text><text fill="#000000" font-family="sans-serif" font-size="14" lengthAdjust="spacing" textLength="240.1875" x="1064" y="498.6039">processing_duration_ms: INTEGER</text><text fill="#000000" font-family="sans-serif" font-size="14" lengthAdjust="spacing" textLength="149.0713" x="1064" y="514.9007">error_message: TEXT</text><text fill="#000000" font-family="sans-serif" font-size="14" lengthAdjust="spacing" textLength="165.0127" x="1064" y="531.1976">created_at: TIMESTAMP</text><text fill="#000000" font-family="sans-serif" font-size="14" lengthAdjust="spacing" textLength="159.0586" x="1064" y="547.4945">upload_at: TIMESTAMP</text></g><!--class Chunks--><g class="entity" data-qualified-name="Chunks" data-source-line="49" id="ent0004"><rect fill="#F1F1F1" filter="url(#f1tyquudqmp983)" height="180.6719" rx="2.5" ry="2.5" style="stroke:#181818;stroke-width:0.5;" width="269.7962" x="1477" y="20.64"/><text fill="#000000" font-family="sans-serif" font-size="14" lengthAdjust="spacing" textLength="51.7959" x="1586.0002" y="38.6351">Chunks</text><line style="stroke:#181818;stroke-width:0.5;" x1="1478" x2="1745.7962" y1="46.9369" y2="46.9369"/><g data-visibility-modifier="IE_MANDATORY"><ellipse cx="1488" cy="60.5853" fill="#000000" rx="3" ry="3" style="stroke:#000000;stroke-width:1;"/></g><path d="M1504.4167,54.4004 C1502.8067,54.4004 1501.5,55.7071 1501.5,57.3171 C1501.5,57.5038 1501.5,57.6904 1501.535,57.8654 L1498,61.4004 L1498,63.7338 L1501.5,63.7338 L1501.5,61.4004 L1503.8333,61.4004 L1503.8333,60.2338 L1503.8683,60.1988 C1504.0433,60.2338 1504.23,60.2338 1504.4167,60.2338 C1506.0267,60.2338 1507.3333,58.9271 1507.3333,57.3171 C1507.3333,55.7071 1506.0267,54.4004 1504.4167,54.4004 M1505,55.5671 C1505.6417,55.5671 1506.1667,56.0921 1506.1667,56.7338 C1506.1667,57.3754 1505.6417,57.9004 1505,57.9004 C1504.3583,57.9004 1503.8333,57.3754 1503.8333,56.7338 C1503.8333,56.0921 1504.3583,55.5671 1505,55.5671" fill="#B8861B"/><text fill="#000000" font-family="sans-serif" font-size="14" font-weight="bold" lengthAdjust="spacing" textLength="69.3301" x="1513.2074" y="63.932">chunk_id</text><text fill="#000000" font-family="sans-serif" font-size="14" lengthAdjust="spacing" textLength="56.9023" x="1582.5374" y="63.932">: BIGINT</text><line style="stroke:#181818;stroke-width:1;" x1="1478" x2="1745.7962" y1="71.2338" y2="71.2338"/><g data-visibility-modifier="IE_MANDATORY"><ellipse cx="1488" cy="84.8822" fill="#000000" rx="3" ry="3" style="stroke:#000000;stroke-width:1;"/></g><path d="M1504.4167,78.6973 C1502.8067,78.6973 1501.5,80.004 1501.5,81.614 C1501.5,81.8006 1501.5,81.9873 1501.535,82.1623 L1498,85.6973 L1498,88.0306 L1501.5,88.0306 L1501.5,85.6973 L1503.8333,85.6973 L1503.8333,84.5306 L1503.8683,84.4956 C1504.0433,84.5306 1504.23,84.5306 1504.4167,84.5306 C1506.0267,84.5306 1507.3333,83.224 1507.3333,81.614 C1507.3333,80.004 1506.0267,78.6973 1504.4167,78.6973 M1505,79.864 C1505.6417,79.864 1506.1667,80.389 1506.1667,81.0306 C1506.1667,81.6723 1505.6417,82.1973 1505,82.1973 C1504.3583,82.1973 1503.8333,81.6723 1503.8333,81.0306 C1503.8333,80.389 1504.3583,79.864 1505,79.864" fill="#AAAAAA"/><text fill="#000000" font-family="sans-serif" font-size="14" lengthAdjust="spacing" textLength="128.502" x="1512.7835" y="88.2289">session_id: BIGINT</text><g data-visibility-modifier="IE_MANDATORY"><ellipse cx="1488" cy="101.1791" fill="#000000" rx="3" ry="3" style="stroke:#000000;stroke-width:1;"/></g><path d="M1504.4167,94.9942 C1502.8067,94.9942 1501.5,96.3008 1501.5,97.9108 C1501.5,98.0975 1501.5,98.2842 1501.535,98.4592 L1498,101.9942 L1498,104.3275 L1501.5,104.3275 L1501.5,101.9942 L1503.8333,101.9942 L1503.8333,100.8275 L1503.8683,100.7925 C1504.0433,100.8275 1504.23,100.8275 1504.4167,100.8275 C1506.0267,100.8275 1507.3333,99.5208 1507.3333,97.9108 C1507.3333,96.3008 1506.0267,94.9942 1504.4167,94.9942 M1505,96.1608 C1505.6417,96.1608 1506.1667,96.6858 1506.1667,97.3275 C1506.1667,97.9692 1505.6417,98.4942 1505,98.4942 C1504.3583,98.4942 1503.8333,97.9692 1503.8333,97.3275 C1503.8333,96.6858 1504.3583,96.1608 1505,96.1608" fill="#AAAAAA"/><text fill="#000000" font-family="sans-serif" font-size="14" lengthAdjust="spacing" textLength="228.0127" x="1512.7835" y="104.5257">embedding_vector_id: VARCHAR</text><line style="stroke:#181818;stroke-width:1;" x1="1478" x2="1745.7962" y1="111.8275" y2="111.8275"/><text fill="#000000" font-family="sans-serif" font-size="14" lengthAdjust="spacing" textLength="174.6514" x="1483" y="128.8226">chunk_number: INTEGER</text><text fill="#000000" font-family="sans-serif" font-size="14" lengthAdjust="spacing" textLength="122.0078" x="1483" y="145.1195">chunk_text: TEXT</text><text fill="#000000" font-family="sans-serif" font-size="14" lengthAdjust="spacing" textLength="141.292" x="1483" y="161.4164">tsvector: TSVECTOR</text><text fill="#000000" font-family="sans-serif" font-size="14" lengthAdjust="spacing" textLength="165.0127" x="1483" y="177.7132">created_at: TIMESTAMP</text><text fill="#000000" font-family="sans-serif" font-size="14" lengthAdjust="spacing" textLength="163.0781" x="1483" y="194.0101">deleted_id: TIMESTAMP</text></g><!--class Analysis_Results--><g class="entity" data-qualified-name="Analysis_Results" data-source-line="62" id="ent0005"><rect fill="#F1F1F1" filter="url(#f1tyquudqmp983)" height="213.2656" rx="2.5" ry="2.5" style="stroke:#181818;stroke-width:0.5;" width="231.3577" x="2181" y="791.14"/><text fill="#000000" font-family="sans-serif" font-size="14" lengthAdjust="spacing" textLength="115.8623" x="2238.7477" y="809.1351">Analysis_Results</text><line style="stroke:#181818;stroke-width:0.5;" x1="2182" x2="2411.3577" y1="817.4369" y2="817.4369"/><g data-visibility-modifier="IE_MANDATORY"><ellipse cx="2192" cy="831.0853" fill="#000000" rx="3" ry="3" style="stroke:#000000;stroke-width:1;"/></g><path d="M2208.4167,824.9004 C2206.8067,824.9004 2205.5,826.2071 2205.5,827.8171 C2205.5,828.0038 2205.5,828.1904 2205.535,828.3654 L2202,831.9004 L2202,834.2338 L2205.5,834.2338 L2205.5,831.9004 L2207.8333,831.9004 L2207.8333,830.7338 L2207.8683,830.6988 C2208.0433,830.7338 2208.23,830.7338 2208.4167,830.7338 C2210.0267,830.7338 2211.3333,829.4271 2211.3333,827.8171 C2211.3333,826.2071 2210.0267,824.9004 2208.4167,824.9004 M2209,826.0671 C2209.6417,826.0671 2210.1667,826.5921 2210.1667,827.2338 C2210.1667,827.8754 2209.6417,828.4004 2209,828.4004 C2208.3583,828.4004 2207.8333,827.8754 2207.8333,827.2338 C2207.8333,826.5921 2208.3583,826.0671 2209,826.0671" fill="#B8861B"/><text fill="#000000" font-family="sans-serif" font-size="14" font-weight="bold" lengthAdjust="spacing" textLength="68.0107" x="2217.2074" y="834.432">result_id</text><text fill="#000000" font-family="sans-serif" font-size="14" lengthAdjust="spacing" textLength="56.9023" x="2285.2181" y="834.432">: BIGINT</text><line style="stroke:#181818;stroke-width:1;" x1="2182" x2="2411.3577" y1="841.7338" y2="841.7338"/><g data-visibility-modifier="IE_MANDATORY"><ellipse cx="2192" cy="855.3822" fill="#000000" rx="3" ry="3" style="stroke:#000000;stroke-width:1;"/></g><path d="M2208.4167,849.1973 C2206.8067,849.1973 2205.5,850.504 2205.5,852.114 C2205.5,852.3006 2205.5,852.4873 2205.535,852.6623 L2202,856.1973 L2202,858.5306 L2205.5,858.5306 L2205.5,856.1973 L2207.8333,856.1973 L2207.8333,855.0306 L2207.8683,854.9956 C2208.0433,855.0306 2208.23,855.0306 2208.4167,855.0306 C2210.0267,855.0306 2211.3333,853.724 2211.3333,852.114 C2211.3333,850.504 2210.0267,849.1973 2208.4167,849.1973 M2209,850.364 C2209.6417,850.364 2210.1667,850.889 2210.1667,851.5306 C2210.1667,852.1723 2209.6417,852.6973 2209,852.6973 C2208.3583,852.6973 2207.8333,852.1723 2207.8333,851.5306 C2207.8333,850.889 2208.3583,850.364 2209,850.364" fill="#AAAAAA"/><text fill="#000000" font-family="sans-serif" font-size="14" lengthAdjust="spacing" textLength="128.502" x="2216.7835" y="858.7289">session_id: BIGINT</text><g data-visibility-modifier="IE_MANDATORY"><ellipse cx="2192" cy="871.6791" fill="#000000" rx="3" ry="3" style="stroke:#000000;stroke-width:1;"/></g><path d="M2208.4167,865.4942 C2206.8067,865.4942 2205.5,866.8008 2205.5,868.4108 C2205.5,868.5975 2205.5,868.7842 2205.535,868.9592 L2202,872.4942 L2202,874.8275 L2205.5,874.8275 L2205.5,872.4942 L2207.8333,872.4942 L2207.8333,871.3275 L2207.8683,871.2925 C2208.0433,871.3275 2208.23,871.3275 2208.4167,871.3275 C2210.0267,871.3275 2211.3333,870.0208 2211.3333,868.4108 C2211.3333,866.8008 2210.0267,865.4942 2208.4167,865.4942 M2209,866.6608 C2209.6417,866.6608 2210.1667,867.1858 2210.1667,867.8275 C2210.1667,868.4692 2209.6417,868.9942 2209,868.9942 C2208.3583,868.9942 2207.8333,868.4692 2207.8333,867.8275 C2207.8333,867.1858 2208.3583,866.6608 2209,866.6608" fill="#AAAAAA"/><text fill="#000000" font-family="sans-serif" font-size="14" lengthAdjust="spacing" textLength="185.3223" x="2216.7835" y="875.0257">analysis_type_id: INTEGER</text><g data-visibility-modifier="IE_MANDATORY"><ellipse cx="2192" cy="887.9759" fill="#000000" rx="3" ry="3" style="stroke:#000000;stroke-width:1;"/></g><path d="M2208.4167,881.791 C2206.8067,881.791 2205.5,883.0977 2205.5,884.7077 C2205.5,884.8944 2205.5,885.081 2205.535,885.256 L2202,888.791 L2202,891.1244 L2205.5,891.1244 L2205.5,888.791 L2207.8333,888.791 L2207.8333,887.6244 L2207.8683,887.5894 C2208.0433,887.6244 2208.23,887.6244 2208.4167,887.6244 C2210.0267,887.6244 2211.3333,886.3177 2211.3333,884.7077 C2211.3333,883.0977 2210.0267,881.791 2208.4167,881.791 M2209,882.9577 C2209.6417,882.9577 2210.1667,883.4827 2210.1667,884.1244 C2210.1667,884.766 2209.6417,885.291 2209,885.291 C2208.3583,885.291 2207.8333,884.766 2207.8333,884.1244 C2207.8333,883.4827 2208.3583,882.9577 2209,882.9577" fill="#AAAAAA"/><text fill="#000000" font-family="sans-serif" font-size="14" lengthAdjust="spacing" textLength="189.5742" x="2216.7835" y="891.3226">evidence_chunk_id: BIGINT</text><g data-visibility-modifier="IE_MANDATORY"><ellipse cx="2192" cy="904.2728" fill="#000000" rx="3" ry="3" style="stroke:#000000;stroke-width:1;"/></g><path d="M2208.4167,898.0879 C2206.8067,898.0879 2205.5,899.3946 2205.5,901.0046 C2205.5,901.1913 2205.5,901.3779 2205.535,901.5529 L2202,905.0879 L2202,907.4213 L2205.5,907.4213 L2205.5,905.0879 L2207.8333,905.0879 L2207.8333,903.9213 L2207.8683,903.8863 C2208.0433,903.9213 2208.23,903.9213 2208.4167,903.9213 C2210.0267,903.9213 2211.3333,902.6146 2211.3333,901.0046 C2211.3333,899.3946 2210.0267,898.0879 2208.4167,898.0879 M2209,899.2546 C2209.6417,899.2546 2210.1667,899.7796 2210.1667,900.4213 C2210.1667,901.0629 2209.6417,901.5879 2209,901.5879 C2208.3583,901.5879 2207.8333,901.0629 2207.8333,900.4213 C2207.8333,899.7796 2208.3583,899.2546 2209,899.2546" fill="#AAAAAA"/><text fill="#000000" font-family="sans-serif" font-size="14" lengthAdjust="spacing" textLength="115.4111" x="2216.7835" y="907.6195">risk_id: INTEGER</text><line style="stroke:#181818;stroke-width:1;" x1="2182" x2="2411.3577" y1="914.9213" y2="914.9213"/><text fill="#000000" font-family="sans-serif" font-size="14" lengthAdjust="spacing" textLength="181.0088" x="2187" y="931.9164">found_severity: VARCHAR</text><text fill="#000000" font-family="sans-serif" font-size="14" lengthAdjust="spacing" textLength="192.1514" x="2187" y="948.2132">confidence_score: INTEGER</text><text fill="#000000" font-family="sans-serif" font-size="14" lengthAdjust="spacing" textLength="143.0557" x="2187" y="964.5101">evidence_text: TEXT</text><text fill="#000000" font-family="sans-serif" font-size="14" lengthAdjust="spacing" textLength="164.3838" x="2187" y="980.807">recommendation: TEXT</text><text fill="#000000" font-family="sans-serif" font-size="14" lengthAdjust="spacing" textLength="165.0127" x="2187" y="997.1039">created_at: TIMESTAMP</text></g><!--class Analysis_Types--><g class="entity" data-qualified-name="Analysis_Types" data-source-line="77" id="ent0006"><rect fill="#F5F5DC" filter="url(#f1tyquudqmp983)" height="107.4844" rx="2.5" ry="2.5" style="stroke:#181818;stroke-width:0.5;" width="241.2015" x="2508" y="831.14"/><text fill="#000000" font-family="sans-serif" font-size="14" lengthAdjust="spacing" textLength="106.3125" x="2575.4445" y="849.1351">Analysis_Types</text><line style="stroke:#181818;stroke-width:0.5;" x1="2509" x2="2748.2015" y1="857.4369" y2="857.4369"/><g data-visibility-modifier="IE_MANDATORY"><ellipse cx="2519" cy="871.0853" fill="#000000" rx="3" ry="3" style="stroke:#000000;stroke-width:1;"/></g><path d="M2535.4167,864.9004 C2533.8067,864.9004 2532.5,866.2071 2532.5,867.8171 C2532.5,868.0038 2532.5,868.1904 2532.535,868.3654 L2529,871.9004 L2529,874.2338 L2532.5,874.2338 L2532.5,871.9004 L2534.8333,871.9004 L2534.8333,870.7338 L2534.8683,870.6988 C2535.0433,870.7338 2535.23,870.7338 2535.4167,870.7338 C2537.0267,870.7338 2538.3333,869.4271 2538.3333,867.8171 C2538.3333,866.2071 2537.0267,864.9004 2535.4167,864.9004 M2536,866.0671 C2536.6417,866.0671 2537.1667,866.5921 2537.1667,867.2338 C2537.1667,867.8754 2536.6417,868.4004 2536,868.4004 C2535.3583,868.4004 2534.8333,867.8754 2534.8333,867.2338 C2534.8333,866.5921 2535.3583,866.0671 2536,866.0671" fill="#B8861B"/><text fill="#000000" font-family="sans-serif" font-size="14" font-weight="bold" lengthAdjust="spacing" textLength="128.4063" x="2544.2074" y="874.432">analysis_type_id</text><text fill="#000000" font-family="sans-serif" font-size="14" lengthAdjust="spacing" textLength="70.5879" x="2672.6136" y="874.432">: INTEGER</text><line style="stroke:#181818;stroke-width:1;" x1="2509" x2="2748.2015" y1="881.7338" y2="881.7338"/><text fill="#000000" font-family="sans-serif" font-size="14" lengthAdjust="spacing" textLength="155.6338" x="2514" y="898.7289">type_name: VARCHAR</text><text fill="#000000" font-family="sans-serif" font-size="14" lengthAdjust="spacing" textLength="185.6162" x="2514" y="915.0257">token_multiplier: DECIMAL</text><text fill="#000000" font-family="sans-serif" font-size="14" lengthAdjust="spacing" textLength="175.0137" x="2514" y="931.3226">cost_multiplier: DECIMAL</text></g><!--class Risk_Definitions--><g class="entity" data-qualified-name="Risk_Definitions" data-source-line="85" id="ent0007"><rect fill="#F5F5DC" filter="url(#f1tyquudqmp983)" height="245.8594" rx="2.5" ry="2.5" style="stroke:#181818;stroke-width:0.5;" width="237.1348" x="1848" y="990.14"/><text fill="#000000" font-family="sans-serif" font-size="14" lengthAdjust="spacing" textLength="111.1045" x="1911.0151" y="1008.1351">Risk_Definitions</text><line style="stroke:#181818;stroke-width:0.5;" x1="1849" x2="2084.1348" y1="1016.4369" y2="1016.4369"/><g data-visibility-modifier="IE_MANDATORY"><ellipse cx="1859" cy="1030.0853" fill="#000000" rx="3" ry="3" style="stroke:#000000;stroke-width:1;"/></g><path d="M1875.4167,1023.9004 C1873.8067,1023.9004 1872.5,1025.2071 1872.5,1026.8171 C1872.5,1027.0038 1872.5,1027.1904 1872.535,1027.3654 L1869,1030.9004 L1869,1033.2338 L1872.5,1033.2338 L1872.5,1030.9004 L1874.8333,1030.9004 L1874.8333,1029.7338 L1874.8683,1029.6988 C1875.0433,1029.7338 1875.23,1029.7338 1875.4167,1029.7338 C1877.0267,1029.7338 1878.3333,1028.4271 1878.3333,1026.8171 C1878.3333,1025.2071 1877.0267,1023.9004 1875.4167,1023.9004 M1876,1025.0671 C1876.6417,1025.0671 1877.1667,1025.5921 1877.1667,1026.2338 C1877.1667,1026.8754 1876.6417,1027.4004 1876,1027.4004 C1875.3583,1027.4004 1874.8333,1026.8754 1874.8333,1026.2338 C1874.8333,1025.5921 1875.3583,1025.0671 1876,1025.0671" fill="#B8861B"/><text fill="#000000" font-family="sans-serif" font-size="14" font-weight="bold" lengthAdjust="spacing" textLength="51.167" x="1884.2074" y="1033.432">risk_id</text><text fill="#000000" font-family="sans-serif" font-size="14" lengthAdjust="spacing" textLength="70.5879" x="1935.3743" y="1033.432">: INTEGER</text><line style="stroke:#181818;stroke-width:1;" x1="1849" x2="2084.1348" y1="1040.7338" y2="1040.7338"/><g data-visibility-modifier="IE_MANDATORY"><ellipse cx="1859" cy="1054.3822" fill="#000000" rx="3" ry="3" style="stroke:#000000;stroke-width:1;"/></g><path d="M1875.4167,1048.1973 C1873.8067,1048.1973 1872.5,1049.504 1872.5,1051.114 C1872.5,1051.3006 1872.5,1051.4873 1872.535,1051.6623 L1869,1055.1973 L1869,1057.5306 L1872.5,1057.5306 L1872.5,1055.1973 L1874.8333,1055.1973 L1874.8333,1054.0306 L1874.8683,1053.9956 C1875.0433,1054.0306 1875.23,1054.0306 1875.4167,1054.0306 C1877.0267,1054.0306 1878.3333,1052.724 1878.3333,1051.114 C1878.3333,1049.504 1877.0267,1048.1973 1875.4167,1048.1973 M1876,1049.364 C1876.6417,1049.364 1877.1667,1049.889 1877.1667,1050.5306 C1877.1667,1051.1723 1876.6417,1051.6973 1876,1051.6973 C1875.3583,1051.6973 1874.8333,1051.1723 1874.8333,1050.5306 C1874.8333,1049.889 1875.3583,1049.364 1876,1049.364" fill="#AAAAAA"/><text fill="#000000" font-family="sans-serif" font-size="14" lengthAdjust="spacing" textLength="184.2832" x="1883.7835" y="1057.7289">risk_category_id: INTEGER</text><g data-visibility-modifier="IE_MANDATORY"><ellipse cx="1859" cy="1070.6791" fill="#000000" rx="3" ry="3" style="stroke:#000000;stroke-width:1;"/></g><path d="M1875.4167,1064.4942 C1873.8067,1064.4942 1872.5,1065.8008 1872.5,1067.4108 C1872.5,1067.5975 1872.5,1067.7842 1872.535,1067.9592 L1869,1071.4942 L1869,1073.8275 L1872.5,1073.8275 L1872.5,1071.4942 L1874.8333,1071.4942 L1874.8333,1070.3275 L1874.8683,1070.2925 C1875.0433,1070.3275 1875.23,1070.3275 1875.4167,1070.3275 C1877.0267,1070.3275 1878.3333,1069.0208 1878.3333,1067.4108 C1878.3333,1065.8008 1877.0267,1064.4942 1875.4167,1064.4942 M1876,1065.6608 C1876.6417,1065.6608 1877.1667,1066.1858 1877.1667,1066.8275 C1877.1667,1067.4692 1876.6417,1067.9942 1876,1067.9942 C1875.3583,1067.9942 1874.8333,1067.4692 1874.8333,1066.8275 C1874.8333,1066.1858 1875.3583,1065.6608 1876,1065.6608" fill="#AAAAAA"/><text fill="#000000" font-family="sans-serif" font-size="14" lengthAdjust="spacing" textLength="167.3574" x="1883.7835" y="1074.0257">jurisdiction_id: INTEGER</text><line style="stroke:#181818;stroke-width:1;" x1="1849" x2="2084.1348" y1="1081.3275" y2="1081.3275"/><text fill="#000000" font-family="sans-serif" font-size="14" lengthAdjust="spacing" textLength="149.4063" x="1854" y="1098.3226">risk_name: VARCHAR</text><text fill="#000000" font-family="sans-serif" font-size="14" lengthAdjust="spacing" textLength="190.1416" x="1854" y="1114.6195">default_severity: VARCHAR</text><text fill="#000000" font-family="sans-serif" font-size="14" lengthAdjust="spacing" textLength="122.5479" x="1854" y="1130.9164">description: TEXT</text><text fill="#000000" font-family="sans-serif" font-size="14" lengthAdjust="spacing" textLength="164.3838" x="1854" y="1147.2132">recommendation: TEXT</text><text fill="#000000" font-family="sans-serif" font-size="14" lengthAdjust="spacing" textLength="121.8643" x="1854" y="1163.5101">version: INTEGER</text><text fill="#000000" font-family="sans-serif" font-size="14" lengthAdjust="spacing" textLength="183.5996" x="1854" y="1179.807">language_code: VARCHAR</text><text fill="#000000" font-family="sans-serif" font-size="14" lengthAdjust="spacing" textLength="225.1348" x="1854" y="1196.1039">is_active: BOOLEAN default true</text><text fill="#000000" font-family="sans-serif" font-size="14" lengthAdjust="spacing" textLength="165.0127" x="1854" y="1212.4007">created_at: TIMESTAMP</text><text fill="#000000" font-family="sans-serif" font-size="14" lengthAdjust="spacing" textLength="169.5928" x="1854" y="1228.6976">updated_at: TIMESTAMP</text></g><!--class Risk_Categories--><g class="entity" data-qualified-name="Risk_Categories" data-source-line="102" id="ent0008"><rect fill="#F5F5DC" filter="url(#f1tyquudqmp983)" height="91.1875" rx="2.5" ry="2.5" style="stroke:#181818;stroke-width:0.5;" width="198.2314" x="2197.5" y="1072.14"/><text fill="#000000" font-family="sans-serif" font-size="14" lengthAdjust="spacing" textLength="111.4805" x="2240.8755" y="1090.1351">Risk_Categories</text><line style="stroke:#181818;stroke-width:0.5;" x1="2198.5" x2="2394.7314" y1="1098.4369" y2="1098.4369"/><g data-visibility-modifier="IE_MANDATORY"><ellipse cx="2208.5" cy="1112.0853" fill="#000000" rx="3" ry="3" style="stroke:#000000;stroke-width:1;"/></g><path d="M2224.9167,1105.9004 C2223.3067,1105.9004 2222,1107.2071 2222,1108.8171 C2222,1109.0038 2222,1109.1904 2222.035,1109.3654 L2218.5,1112.9004 L2218.5,1115.2338 L2222,1115.2338 L2222,1112.9004 L2224.3333,1112.9004 L2224.3333,1111.7338 L2224.3683,1111.6988 C2224.5433,1111.7338 2224.73,1111.7338 2224.9167,1111.7338 C2226.5267,1111.7338 2227.8333,1110.4271 2227.8333,1108.8171 C2227.8333,1107.2071 2226.5267,1105.9004 2224.9167,1105.9004 M2225.5,1107.0671 C2226.1417,1107.0671 2226.6667,1107.5921 2226.6667,1108.2338 C2226.6667,1108.8754 2226.1417,1109.4004 2225.5,1109.4004 C2224.8583,1109.4004 2224.3333,1108.8754 2224.3333,1108.2338 C2224.3333,1107.5921 2224.8583,1107.0671 2225.5,1107.0671" fill="#B8861B"/><text fill="#000000" font-family="sans-serif" font-size="14" font-weight="bold" lengthAdjust="spacing" textLength="91.4238" x="2233.7074" y="1115.432">category_id</text><text fill="#000000" font-family="sans-serif" font-size="14" lengthAdjust="spacing" textLength="4.7168" x="2325.1312" y="1115.432">:</text><line style="stroke:#181818;stroke-width:1;" x1="2198.5" x2="2394.7314" y1="1122.7338" y2="1122.7338"/><text fill="#000000" font-family="sans-serif" font-size="14" lengthAdjust="spacing" textLength="186.2314" x="2203.5" y="1139.7289">category_name: VARCHAR</text><text fill="#000000" font-family="sans-serif" font-size="14" lengthAdjust="spacing" textLength="122.5479" x="2203.5" y="1156.0257">description: TEXT</text></g><!--class Jurisdictions--><g class="entity" data-qualified-name="Jurisdictions" data-source-line="109" id="ent0009"><rect fill="#F5F5DC" filter="url(#f1tyquudqmp983)" height="107.4844" rx="2.5" ry="2.5" style="stroke:#181818;stroke-width:0.5;" width="281.4316" x="1471" y="550.14"/><text fill="#000000" font-family="sans-serif" font-size="14" lengthAdjust="spacing" textLength="84.5264" x="1569.4526" y="568.1351">Jurisdictions</text><line style="stroke:#181818;stroke-width:0.5;" x1="1472" x2="1751.4316" y1="576.4369" y2="576.4369"/><g data-visibility-modifier="IE_MANDATORY"><ellipse cx="1482" cy="590.0853" fill="#000000" rx="3" ry="3" style="stroke:#000000;stroke-width:1;"/></g><path d="M1498.4167,583.9004 C1496.8067,583.9004 1495.5,585.2071 1495.5,586.8171 C1495.5,587.0038 1495.5,587.1904 1495.535,587.3654 L1492,590.9004 L1492,593.2338 L1495.5,593.2338 L1495.5,590.9004 L1497.8333,590.9004 L1497.8333,589.7338 L1497.8683,589.6988 C1498.0433,589.7338 1498.23,589.7338 1498.4167,589.7338 C1500.0267,589.7338 1501.3333,588.4271 1501.3333,586.8171 C1501.3333,585.2071 1500.0267,583.9004 1498.4167,583.9004 M1499,585.0671 C1499.6417,585.0671 1500.1667,585.5921 1500.1667,586.2338 C1500.1667,586.8754 1499.6417,587.4004 1499,587.4004 C1498.3583,587.4004 1497.8333,586.8754 1497.8333,586.2338 C1497.8333,585.5921 1498.3583,585.0671 1499,585.0671" fill="#B8861B"/><text fill="#000000" font-family="sans-serif" font-size="14" font-weight="bold" lengthAdjust="spacing" textLength="110.8174" x="1507.2074" y="593.432">jurisdiction_id</text><text fill="#000000" font-family="sans-serif" font-size="14" lengthAdjust="spacing" textLength="70.5879" x="1618.0247" y="593.432">: INTEGER</text><line style="stroke:#181818;stroke-width:1;" x1="1472" x2="1751.4316" y1="600.7338" y2="600.7338"/><text fill="#000000" font-family="sans-serif" font-size="14" lengthAdjust="spacing" textLength="195.4121" x="1477" y="617.7289">jurisdiction_code: VARCHAR</text><text fill="#000000" font-family="sans-serif" font-size="14" lengthAdjust="spacing" textLength="201.3525" x="1477" y="634.0257">jurisdiction_name: VARCHAR</text><text fill="#000000" font-family="sans-serif" font-size="14" lengthAdjust="spacing" textLength="269.4316" x="1477" y="650.3226">language_code: VARCHAR default 'RU'</text></g><!--class Document_Types--><g class="entity" data-qualified-name="Document_Types" data-source-line="117" id="ent0010"><rect fill="#F5F5DC" filter="url(#f1tyquudqmp983)" height="123.7813" rx="2.5" ry="2.5" style="stroke:#181818;stroke-width:0.5;" width="255.598" x="707" y="394.14"/><text fill="#000000" font-family="sans-serif" font-size="14" lengthAdjust="spacing" textLength="121.1602" x="774.2189" y="412.1351">Document_Types</text><line style="stroke:#181818;stroke-width:0.5;" x1="708" x2="961.598" y1="420.4369" y2="420.4369"/><g data-visibility-modifier="IE_MANDATORY"><ellipse cx="718" cy="434.0853" fill="#000000" rx="3" ry="3" style="stroke:#000000;stroke-width:1;"/></g><path d="M734.4167,427.9004 C732.8067,427.9004 731.5,429.2071 731.5,430.8171 C731.5,431.0038 731.5,431.1904 731.535,431.3654 L728,434.9004 L728,437.2338 L731.5,437.2338 L731.5,434.9004 L733.8333,434.9004 L733.8333,433.7338 L733.8683,433.6988 C734.0433,433.7338 734.23,433.7338 734.4167,433.7338 C736.0267,433.7338 737.3333,432.4271 737.3333,430.8171 C737.3333,429.2071 736.0267,427.9004 734.4167,427.9004 M735,429.0671 C735.6417,429.0671 736.1667,429.5921 736.1667,430.2338 C736.1667,430.8754 735.6417,431.4004 735,431.4004 C734.3583,431.4004 733.8333,430.8754 733.8333,430.2338 C733.8333,429.5921 734.3583,429.0671 735,429.0671" fill="#B8861B"/><text fill="#000000" font-family="sans-serif" font-size="14" font-weight="bold" lengthAdjust="spacing" textLength="142.8027" x="743.2074" y="437.432">document_type_id</text><text fill="#000000" font-family="sans-serif" font-size="14" lengthAdjust="spacing" textLength="70.5879" x="886.0101" y="437.432">: INTEGER</text><line style="stroke:#181818;stroke-width:1;" x1="708" x2="961.598" y1="444.7338" y2="444.7338"/><text fill="#000000" font-family="sans-serif" font-size="14" lengthAdjust="spacing" textLength="155.6338" x="713" y="461.7289">type_name: VARCHAR</text><text fill="#000000" font-family="sans-serif" font-size="14" lengthAdjust="spacing" textLength="122.5479" x="713" y="478.0257">description: TEXT</text><text fill="#000000" font-family="sans-serif" font-size="14" lengthAdjust="spacing" textLength="123.6963" x="713" y="494.3226">jurisdiction_name</text><text fill="#000000" font-family="sans-serif" font-size="14" lengthAdjust="spacing" textLength="165.0127" x="713" y="510.6195">created_at: TIMESTAMP</text></g><!--class Tariff--><g class="entity" data-qualified-name="Tariff" data-source-line="126" id="ent0011"><rect fill="#F1F1F1" filter="url(#f1tyquudqmp983)" height="188.9688" rx="2.5" ry="2.5" style="stroke:#181818;stroke-width:0.5;" width="262.4551" x="349" y="787.64"/><text fill="#000000" font-family="sans-serif" font-size="14" lengthAdjust="spacing" textLength="36.6338" x="461.9106" y="805.6351">Tariff</text><line style="stroke:#181818;stroke-width:0.5;" x1="350" x2="610.4551" y1="813.9369" y2="813.9369"/><g data-visibility-modifier="IE_MANDATORY"><ellipse cx="360" cy="827.5853" fill="#000000" rx="3" ry="3" style="stroke:#000000;stroke-width:1;"/></g><path d="M376.4167,821.4004 C374.8067,821.4004 373.5,822.7071 373.5,824.3171 C373.5,824.5038 373.5,824.6904 373.535,824.8654 L370,828.4004 L370,830.7338 L373.5,830.7338 L373.5,828.4004 L375.8333,828.4004 L375.8333,827.2338 L375.8683,827.1988 C376.0433,827.2338 376.23,827.2338 376.4167,827.2338 C378.0267,827.2338 379.3333,825.9271 379.3333,824.3171 C379.3333,822.7071 378.0267,821.4004 376.4167,821.4004 M377,822.5671 C377.6417,822.5671 378.1667,823.0921 378.1667,823.7338 C378.1667,824.3754 377.6417,824.9004 377,824.9004 C376.3583,824.9004 375.8333,824.3754 375.8333,823.7338 C375.8333,823.0921 376.3583,822.5671 377,822.5671" fill="#B8861B"/><text fill="#000000" font-family="sans-serif" font-size="14" font-weight="bold" lengthAdjust="spacing" textLength="61.8447" x="385.2074" y="830.932">tariff_id</text><text fill="#000000" font-family="sans-serif" font-size="14" lengthAdjust="spacing" textLength="70.5879" x="447.0521" y="830.932">: INTEGER</text><line style="stroke:#181818;stroke-width:1;" x1="350" x2="610.4551" y1="838.2338" y2="838.2338"/><text fill="#000000" font-family="sans-serif" font-size="14" lengthAdjust="spacing" textLength="157.9307" x="355" y="855.2289">tariff_name: VARCHAR</text><text fill="#000000" font-family="sans-serif" font-size="14" lengthAdjust="spacing" textLength="147.5674" x="355" y="871.5257">tariff_price: DECIMAL</text><text fill="#000000" font-family="sans-serif" font-size="14" lengthAdjust="spacing" textLength="141.9141" x="355" y="887.8226">daily_limit: INTEGER</text><text fill="#000000" font-family="sans-serif" font-size="14" lengthAdjust="spacing" textLength="165.9971" x="355" y="904.1195">monthly_limit: INTEGER</text><text fill="#000000" font-family="sans-serif" font-size="14" lengthAdjust="spacing" textLength="226.8574" x="355" y="920.4164">allows_deep_analysis: BOOLEAN</text><text fill="#000000" font-family="sans-serif" font-size="14" lengthAdjust="spacing" textLength="250.4551" x="355" y="936.7132">allows_batch_processing: BOOLEAN</text><text fill="#000000" font-family="sans-serif" font-size="14" lengthAdjust="spacing" textLength="188.7744" x="355" y="953.0101">priority_support: BOOLEAN</text><text fill="#000000" font-family="sans-serif" font-size="14" lengthAdjust="spacing" textLength="165.0127" x="355" y="969.307">created_at: TIMESTAMP</text></g><!--class File_Format--><g class="entity" data-qualified-name="File_Format" data-source-line="139" id="ent0012"><rect fill="#F5F5DC" filter="url(#f1tyquudqmp983)" height="107.4844" rx="2.5" ry="2.5" style="stroke:#181818;stroke-width:0.5;" width="220.14" x="724.5" y="219.14"/><text fill="#000000" font-family="sans-serif" font-size="14" lengthAdjust="spacing" textLength="81.5254" x="793.8073" y="237.1351">File_Format</text><line style="stroke:#181818;stroke-width:0.5;" x1="725.5" x2="943.64" y1="245.4369" y2="245.4369"/><g data-visibility-modifier="IE_MANDATORY"><ellipse cx="735.5" cy="259.0853" fill="#000000" rx="3" ry="3" style="stroke:#000000;stroke-width:1;"/></g><path d="M751.9167,252.9004 C750.3067,252.9004 749,254.2071 749,255.8171 C749,256.0038 749,256.1904 749.035,256.3654 L745.5,259.9004 L745.5,262.2338 L749,262.2338 L749,259.9004 L751.3333,259.9004 L751.3333,258.7338 L751.3683,258.6988 C751.5433,258.7338 751.73,258.7338 751.9167,258.7338 C753.5267,258.7338 754.8333,257.4271 754.8333,255.8171 C754.8333,254.2071 753.5267,252.9004 751.9167,252.9004 M752.5,254.0671 C753.1417,254.0671 753.6667,254.5921 753.6667,255.2338 C753.6667,255.8754 753.1417,256.4004 752.5,256.4004 C751.8583,256.4004 751.3333,255.8754 751.3333,255.2338 C751.3333,254.5921 751.8583,254.0671 752.5,254.0671" fill="#B8861B"/><text fill="#000000" font-family="sans-serif" font-size="14" font-weight="bold" lengthAdjust="spacing" textLength="107.3447" x="760.7074" y="262.432">file_format_id</text><text fill="#000000" font-family="sans-serif" font-size="14" lengthAdjust="spacing" textLength="70.5879" x="868.0521" y="262.432">: INTEGER</text><line style="stroke:#181818;stroke-width:1;" x1="725.5" x2="943.64" y1="269.7338" y2="269.7338"/><text fill="#000000" font-family="sans-serif" font-size="14" lengthAdjust="spacing" textLength="171.3154" x="730.5" y="286.7289">format_name: VARCHAR</text><text fill="#000000" font-family="sans-serif" font-size="14" lengthAdjust="spacing" textLength="155.709" x="730.5" y="303.0257">mime_type: VARCHAR</text><text fill="#000000" font-family="sans-serif" font-size="14" lengthAdjust="spacing" textLength="164.2061" x="730.5" y="319.3226">requires_ocr: BOOLEAN</text></g><!--class Payments--><g class="entity" data-qualified-name="Payments" data-source-line="147" id="ent0013"><rect fill="#F1F1F1" filter="url(#f1tyquudqmp983)" height="213.2656" rx="2.5" ry="2.5" style="stroke:#181818;stroke-width:0.5;" width="232.7865" x="364" y="506.14"/><text fill="#000000" font-family="sans-serif" font-size="14" lengthAdjust="spacing" textLength="69.2139" x="445.7863" y="524.1351">Payments</text><line style="stroke:#181818;stroke-width:0.5;" x1="365" x2="595.7865" y1="532.4369" y2="532.4369"/><g data-visibility-modifier="IE_MANDATORY"><ellipse cx="375" cy="546.0853" fill="#000000" rx="3" ry="3" style="stroke:#000000;stroke-width:1;"/></g><path d="M391.4167,539.9004 C389.8067,539.9004 388.5,541.2071 388.5,542.8171 C388.5,543.0038 388.5,543.1904 388.535,543.3654 L385,546.9004 L385,549.2338 L388.5,549.2338 L388.5,546.9004 L390.8333,546.9004 L390.8333,545.7338 L390.8683,545.6988 C391.0433,545.7338 391.23,545.7338 391.4167,545.7338 C393.0267,545.7338 394.3333,544.4271 394.3333,542.8171 C394.3333,541.2071 393.0267,539.9004 391.4167,539.9004 M392,541.0671 C392.6417,541.0671 393.1667,541.5921 393.1667,542.2338 C393.1667,542.8754 392.6417,543.4004 392,543.4004 C391.3583,543.4004 390.8333,542.8754 390.8333,542.2338 C390.8333,541.5921 391.3583,541.0671 392,541.0671" fill="#B8861B"/><text fill="#000000" font-family="sans-serif" font-size="14" font-weight="bold" lengthAdjust="spacing" textLength="91.1572" x="400.2074" y="549.432">payment_id</text><text fill="#000000" font-family="sans-serif" font-size="14" lengthAdjust="spacing" textLength="44.5703" x="491.3646" y="549.432">: UUID</text><line style="stroke:#181818;stroke-width:1;" x1="365" x2="595.7865" y1="556.7338" y2="556.7338"/><g data-visibility-modifier="IE_MANDATORY"><ellipse cx="375" cy="570.3822" fill="#000000" rx="3" ry="3" style="stroke:#000000;stroke-width:1;"/></g><path d="M391.4167,564.1973 C389.8067,564.1973 388.5,565.504 388.5,567.114 C388.5,567.3006 388.5,567.4873 388.535,567.6623 L385,571.1973 L385,573.5306 L388.5,573.5306 L388.5,571.1973 L390.8333,571.1973 L390.8333,570.0306 L390.8683,569.9956 C391.0433,570.0306 391.23,570.0306 391.4167,570.0306 C393.0267,570.0306 394.3333,568.724 394.3333,567.114 C394.3333,565.504 393.0267,564.1973 391.4167,564.1973 M392,565.364 C392.6417,565.364 393.1667,565.889 393.1667,566.5306 C393.1667,567.1723 392.6417,567.6973 392,567.6973 C391.3583,567.6973 390.8333,567.1723 390.8333,566.5306 C390.8333,565.889 391.3583,565.364 392,565.364" fill="#AAAAAA"/><text fill="#000000" font-family="sans-serif" font-size="14" lengthAdjust="spacing" textLength="120.9004" x="399.7835" y="573.7289">user_id: INTEGER</text><g data-visibility-modifier="IE_MANDATORY"><ellipse cx="375" cy="586.6791" fill="#000000" rx="3" ry="3" style="stroke:#000000;stroke-width:1;"/></g><path d="M391.4167,580.4942 C389.8067,580.4942 388.5,581.8008 388.5,583.4108 C388.5,583.5975 388.5,583.7842 388.535,583.9592 L385,587.4942 L385,589.8275 L388.5,589.8275 L388.5,587.4942 L390.8333,587.4942 L390.8333,586.3275 L390.8683,586.2925 C391.0433,586.3275 391.23,586.3275 391.4167,586.3275 C393.0267,586.3275 394.3333,585.0208 394.3333,583.4108 C394.3333,581.8008 393.0267,580.4942 391.4167,580.4942 M392,581.6608 C392.6417,581.6608 393.1667,582.1858 393.1667,582.8275 C393.1667,583.4692 392.6417,583.9942 392,583.9942 C391.3583,583.9942 390.8333,583.4692 390.8333,582.8275 C390.8333,582.1858 391.3583,581.6608 392,581.6608" fill="#AAAAAA"/><text fill="#000000" font-family="sans-serif" font-size="14" lengthAdjust="spacing" textLength="191.0029" x="399.7835" y="590.0257">payment_type_id: INTEGER</text><g data-visibility-modifier="IE_MANDATORY"><ellipse cx="375" cy="602.9759" fill="#000000" rx="3" ry="3" style="stroke:#000000;stroke-width:1;"/></g><path d="M391.4167,596.791 C389.8067,596.791 388.5,598.0977 388.5,599.7077 C388.5,599.8944 388.5,600.081 388.535,600.256 L385,603.791 L385,606.1244 L388.5,606.1244 L388.5,603.791 L390.8333,603.791 L390.8333,602.6244 L390.8683,602.5894 C391.0433,602.6244 391.23,602.6244 391.4167,602.6244 C393.0267,602.6244 394.3333,601.3177 394.3333,599.7077 C394.3333,598.0977 393.0267,596.791 391.4167,596.791 M392,597.9577 C392.6417,597.9577 393.1667,598.4827 393.1667,599.1244 C393.1667,599.766 392.6417,600.291 392,600.291 C391.3583,600.291 390.8333,599.766 390.8333,599.1244 C390.8333,598.4827 391.3583,597.9577 392,597.9577" fill="#AAAAAA"/><text fill="#000000" font-family="sans-serif" font-size="14" lengthAdjust="spacing" textLength="97.918" x="399.7835" y="606.3226">tariff_id: UUID</text><line style="stroke:#181818;stroke-width:1;" x1="365" x2="595.7865" y1="613.6244" y2="613.6244"/><text fill="#000000" font-family="sans-serif" font-size="14" lengthAdjust="spacing" textLength="126.1709" x="370" y="630.6195">amount: DECIMAL</text><text fill="#000000" font-family="sans-serif" font-size="14" lengthAdjust="spacing" textLength="139.207" x="370" y="646.9164">currency: VARCHAR</text><text fill="#000000" font-family="sans-serif" font-size="14" lengthAdjust="spacing" textLength="190.0391" x="370" y="663.2132">payment_status: VARCHAR</text><text fill="#000000" font-family="sans-serif" font-size="14" lengthAdjust="spacing" textLength="176.5176" x="370" y="679.5101">transaction_id: VARCHAR</text><text fill="#000000" font-family="sans-serif" font-size="14" lengthAdjust="spacing" textLength="165.0127" x="370" y="695.807">created_at: TIMESTAMP</text><text fill="#000000" font-family="sans-serif" font-size="14" lengthAdjust="spacing" textLength="185.6572" x="370" y="712.1039">completed_at: TIMESTAMP</text></g><!--class Payments_Types--><g class="entity" data-qualified-name="Payments_Types" data-source-line="162" id="ent0014"><rect fill="#F5F5DC" filter="url(#f1tyquudqmp983)" height="74.8906" rx="2.5" ry="2.5" style="stroke:#181818;stroke-width:0.5;" width="246.2874" x="7" y="545.64"/><text fill="#000000" font-family="sans-serif" font-size="14" lengthAdjust="spacing" textLength="117.8447" x="71.2214" y="563.6351">Payments_Types</text><line style="stroke:#181818;stroke-width:0.5;" x1="8" x2="252.2874" y1="571.9369" y2="571.9369"/><g data-visibility-modifier="IE_MANDATORY"><ellipse cx="18" cy="585.5853" fill="#000000" rx="3" ry="3" style="stroke:#000000;stroke-width:1;"/></g><path d="M34.4167,579.4004 C32.8067,579.4004 31.5,580.7071 31.5,582.3171 C31.5,582.5038 31.5,582.6904 31.535,582.8654 L28,586.4004 L28,588.7338 L31.5,588.7338 L31.5,586.4004 L33.8333,586.4004 L33.8333,585.2338 L33.8683,585.1988 C34.0433,585.2338 34.23,585.2338 34.4167,585.2338 C36.0267,585.2338 37.3333,583.9271 37.3333,582.3171 C37.3333,580.7071 36.0267,579.4004 34.4167,579.4004 M35,580.5671 C35.6417,580.5671 36.1667,581.0921 36.1667,581.7338 C36.1667,582.3754 35.6417,582.9004 35,582.9004 C34.3583,582.9004 33.8333,582.3754 33.8333,581.7338 C33.8333,581.0921 34.3583,580.5671 35,580.5671" fill="#B8861B"/><text fill="#000000" font-family="sans-serif" font-size="14" font-weight="bold" lengthAdjust="spacing" textLength="133.4922" x="43.2074" y="588.932">payment_type_id</text><text fill="#000000" font-family="sans-serif" font-size="14" lengthAdjust="spacing" textLength="70.5879" x="176.6995" y="588.932">: INTEGER</text><line style="stroke:#181818;stroke-width:1;" x1="8" x2="252.2874" y1="596.2338" y2="596.2338"/><text fill="#000000" font-family="sans-serif" font-size="14" lengthAdjust="spacing" textLength="155.6338" x="13" y="613.2289">type_name: VARCHAR</text></g><!--class Rate_Limit_Log--><g class="entity" data-qualified-name="Rate_Limit_Log" data-source-line="168" id="ent0015"><rect fill="#FFF0F5" filter="url(#f1tyquudqmp983)" height="164.375" rx="2.5" ry="2.5" style="stroke:#181818;stroke-width:0.5;" width="195.5107" x="32.5" y="747.64"/><text fill="#000000" font-family="sans-serif" font-size="14" lengthAdjust="spacing" textLength="106.3672" x="77.0718" y="765.6351">Rate_Limit_Log</text><line style="stroke:#181818;stroke-width:0.5;" x1="33.5" x2="227.0107" y1="773.9369" y2="773.9369"/><g data-visibility-modifier="IE_MANDATORY"><ellipse cx="43.5" cy="787.5853" fill="#000000" rx="3" ry="3" style="stroke:#000000;stroke-width:1;"/></g><path d="M59.9167,781.4004 C58.3067,781.4004 57,782.7071 57,784.3171 C57,784.5038 57,784.6904 57.035,784.8654 L53.5,788.4004 L53.5,790.7338 L57,790.7338 L57,788.4004 L59.3333,788.4004 L59.3333,787.2338 L59.3683,787.1988 C59.5433,787.2338 59.73,787.2338 59.9167,787.2338 C61.5267,787.2338 62.8333,785.9271 62.8333,784.3171 C62.8333,782.7071 61.5267,781.4004 59.9167,781.4004 M60.5,782.5671 C61.1417,782.5671 61.6667,783.0921 61.6667,783.7338 C61.6667,784.3754 61.1417,784.9004 60.5,784.9004 C59.8583,784.9004 59.3333,784.3754 59.3333,783.7338 C59.3333,783.0921 59.8583,782.5671 60.5,782.5671" fill="#B8861B"/><text fill="#000000" font-family="sans-serif" font-size="14" font-weight="bold" lengthAdjust="spacing" textLength="46.2588" x="68.7074" y="790.932">log_id</text><text fill="#000000" font-family="sans-serif" font-size="14" lengthAdjust="spacing" textLength="56.9023" x="114.9661" y="790.932">: BIGINT</text><line style="stroke:#181818;stroke-width:1;" x1="33.5" x2="227.0107" y1="798.2338" y2="798.2338"/><g data-visibility-modifier="IE_MANDATORY"><ellipse cx="43.5" cy="811.8822" fill="#000000" rx="3" ry="3" style="stroke:#000000;stroke-width:1;"/></g><path d="M59.9167,805.6973 C58.3067,805.6973 57,807.004 57,808.614 C57,808.8006 57,808.9873 57.035,809.1623 L53.5,812.6973 L53.5,815.0306 L57,815.0306 L57,812.6973 L59.3333,812.6973 L59.3333,811.5306 L59.3683,811.4956 C59.5433,811.5306 59.73,811.5306 59.9167,811.5306 C61.5267,811.5306 62.8333,810.224 62.8333,808.614 C62.8333,807.004 61.5267,805.6973 59.9167,805.6973 M60.5,806.864 C61.1417,806.864 61.6667,807.389 61.6667,808.0306 C61.6667,808.6723 61.1417,809.1973 60.5,809.1973 C59.8583,809.1973 59.3333,808.6723 59.3333,808.0306 C59.3333,807.389 59.8583,806.864 60.5,806.864" fill="#AAAAAA"/><text fill="#000000" font-family="sans-serif" font-size="14" lengthAdjust="spacing" textLength="107.2148" x="68.2835" y="815.2289">user_id: BIGINT</text><g data-visibility-modifier="IE_MANDATORY"><ellipse cx="43.5" cy="828.1791" fill="#000000" rx="3" ry="3" style="stroke:#000000;stroke-width:1;"/></g><path d="M59.9167,821.9942 C58.3067,821.9942 57,823.3008 57,824.9108 C57,825.0975 57,825.2842 57.035,825.4592 L53.5,828.9942 L53.5,831.3275 L57,831.3275 L57,828.9942 L59.3333,828.9942 L59.3333,827.8275 L59.3683,827.7925 C59.5433,827.8275 59.73,827.8275 59.9167,827.8275 C61.5267,827.8275 62.8333,826.5208 62.8333,824.9108 C62.8333,823.3008 61.5267,821.9942 59.9167,821.9942 M60.5,823.1608 C61.1417,823.1608 61.6667,823.6858 61.6667,824.3275 C61.6667,824.9692 61.1417,825.4942 60.5,825.4942 C59.8583,825.4942 59.3333,824.9692 59.3333,824.3275 C59.3333,823.6858 59.8583,823.1608 60.5,823.1608" fill="#AAAAAA"/><text fill="#000000" font-family="sans-serif" font-size="14" lengthAdjust="spacing" textLength="123.9355" x="68.2835" y="831.5257">tariff_id: INTEGER</text><line style="stroke:#181818;stroke-width:1;" x1="33.5" x2="227.0107" y1="838.8275" y2="838.8275"/><text fill="#000000" font-family="sans-serif" font-size="14" lengthAdjust="spacing" textLength="142.1738" x="38.5" y="855.8226">analysis_date: DATE</text><text fill="#000000" font-family="sans-serif" font-size="14" lengthAdjust="spacing" textLength="173.7695" x="38.5" y="872.1195">analysis_count: INTEGER</text><text fill="#000000" font-family="sans-serif" font-size="14" lengthAdjust="spacing" textLength="183.5107" x="38.5" y="888.4164">limit_exceeded: BOOLEAN</text><text fill="#000000" font-family="sans-serif" font-size="14" lengthAdjust="spacing" textLength="165.8262" x="38.5" y="904.7132">timestamp: TIMESTAMP</text></g><!--class Feedback--><g class="entity" data-qualified-name="Feedback" data-source-line="180" id="ent0016"><rect fill="#FFF0F5" filter="url(#f1tyquudqmp983)" height="148.0781" rx="2.5" ry="2.5" style="stroke:#181818;stroke-width:0.5;" width="234.7347" x="1099.5" y="936.64"/><text fill="#000000" font-family="sans-serif" font-size="14" lengthAdjust="spacing" textLength="67.4365" x="1183.1491" y="954.6351">Feedback</text><line style="stroke:#181818;stroke-width:0.5;" x1="1100.5" x2="1333.2347" y1="962.9369" y2="962.9369"/><g data-visibility-modifier="IE_MANDATORY"><ellipse cx="1110.5" cy="976.5853" fill="#000000" rx="3" ry="3" style="stroke:#000000;stroke-width:1;"/></g><path d="M1126.9167,970.4004 C1125.3067,970.4004 1124,971.7071 1124,973.3171 C1124,973.5038 1124,973.6904 1124.035,973.8654 L1120.5,977.4004 L1120.5,979.7338 L1124,979.7338 L1124,977.4004 L1126.3333,977.4004 L1126.3333,976.2338 L1126.3683,976.1988 C1126.5433,976.2338 1126.73,976.2338 1126.9167,976.2338 C1128.5267,976.2338 1129.8333,974.9271 1129.8333,973.3171 C1129.8333,971.7071 1128.5267,970.4004 1126.9167,970.4004 M1127.5,971.5671 C1128.1417,971.5671 1128.6667,972.0921 1128.6667,972.7338 C1128.6667,973.3754 1128.1417,973.9004 1127.5,973.9004 C1126.8583,973.9004 1126.3333,973.3754 1126.3333,972.7338 C1126.3333,972.0921 1126.8583,971.5671 1127.5,971.5671" fill="#B8861B"/><text fill="#000000" font-family="sans-serif" font-size="14" font-weight="bold" lengthAdjust="spacing" textLength="94.001" x="1135.7074" y="979.932">feedback_id</text><text fill="#000000" font-family="sans-serif" font-size="14" lengthAdjust="spacing" textLength="56.9023" x="1229.7083" y="979.932">: BIGINT</text><line style="stroke:#181818;stroke-width:1;" x1="1100.5" x2="1333.2347" y1="987.2338" y2="987.2338"/><g data-visibility-modifier="IE_MANDATORY"><ellipse cx="1110.5" cy="1000.8822" fill="#000000" rx="3" ry="3" style="stroke:#000000;stroke-width:1;"/></g><path d="M1126.9167,994.6973 C1125.3067,994.6973 1124,996.004 1124,997.614 C1124,997.8006 1124,997.9873 1124.035,998.1623 L1120.5,1001.6973 L1120.5,1004.0306 L1124,1004.0306 L1124,1001.6973 L1126.3333,1001.6973 L1126.3333,1000.5306 L1126.3683,1000.4956 C1126.5433,1000.5306 1126.73,1000.5306 1126.9167,1000.5306 C1128.5267,1000.5306 1129.8333,999.224 1129.8333,997.614 C1129.8333,996.004 1128.5267,994.6973 1126.9167,994.6973 M1127.5,995.864 C1128.1417,995.864 1128.6667,996.389 1128.6667,997.0306 C1128.6667,997.6723 1128.1417,998.1973 1127.5,998.1973 C1126.8583,998.1973 1126.3333,997.6723 1126.3333,997.0306 C1126.3333,996.389 1126.8583,995.864 1127.5,995.864" fill="#AAAAAA"/><text fill="#000000" font-family="sans-serif" font-size="14" lengthAdjust="spacing" textLength="116.5938" x="1135.2835" y="1004.2289">result_id: BIGINT</text><g data-visibility-modifier="IE_MANDATORY"><ellipse cx="1110.5" cy="1017.1791" fill="#000000" rx="3" ry="3" style="stroke:#000000;stroke-width:1;"/></g><path d="M1126.9167,1010.9942 C1125.3067,1010.9942 1124,1012.3008 1124,1013.9108 C1124,1014.0975 1124,1014.2842 1124.035,1014.4592 L1120.5,1017.9942 L1120.5,1020.3275 L1124,1020.3275 L1124,1017.9942 L1126.3333,1017.9942 L1126.3333,1016.8275 L1126.3683,1016.7925 C1126.5433,1016.8275 1126.73,1016.8275 1126.9167,1016.8275 C1128.5267,1016.8275 1129.8333,1015.5208 1129.8333,1013.9108 C1129.8333,1012.3008 1128.5267,1010.9942 1126.9167,1010.9942 M1127.5,1012.1608 C1128.1417,1012.1608 1128.6667,1012.6858 1128.6667,1013.3275 C1128.6667,1013.9692 1128.1417,1014.4942 1127.5,1014.4942 C1126.8583,1014.4942 1126.3333,1013.9692 1126.3333,1013.3275 C1126.3333,1012.6858 1126.8583,1012.1608 1127.5,1012.1608" fill="#AAAAAA"/><text fill="#000000" font-family="sans-serif" font-size="14" lengthAdjust="spacing" textLength="107.2148" x="1135.2835" y="1020.5257">user_id: BIGINT</text><g data-visibility-modifier="IE_MANDATORY"><ellipse cx="1110.5" cy="1033.4759" fill="#000000" rx="3" ry="3" style="stroke:#000000;stroke-width:1;"/></g><path d="M1126.9167,1027.291 C1125.3067,1027.291 1124,1028.5977 1124,1030.2077 C1124,1030.3944 1124,1030.581 1124.035,1030.756 L1120.5,1034.291 L1120.5,1036.6244 L1124,1036.6244 L1124,1034.291 L1126.3333,1034.291 L1126.3333,1033.1244 L1126.3683,1033.0894 C1126.5433,1033.1244 1126.73,1033.1244 1126.9167,1033.1244 C1128.5267,1033.1244 1129.8333,1031.8177 1129.8333,1030.2077 C1129.8333,1028.5977 1128.5267,1027.291 1126.9167,1027.291 M1127.5,1028.4577 C1128.1417,1028.4577 1128.6667,1028.9827 1128.6667,1029.6244 C1128.6667,1030.266 1128.1417,1030.791 1127.5,1030.791 C1126.8583,1030.791 1126.3333,1030.266 1126.3333,1029.6244 C1126.3333,1028.9827 1126.8583,1028.4577 1127.5,1028.4577" fill="#AAAAAA"/><text fill="#000000" font-family="sans-serif" font-size="14" lengthAdjust="spacing" textLength="192.9512" x="1135.2835" y="1036.8226">feedback_type_id: INTEGER</text><line style="stroke:#181818;stroke-width:1;" x1="1100.5" x2="1333.2347" y1="1044.1244" y2="1044.1244"/><text fill="#000000" font-family="sans-serif" font-size="14" lengthAdjust="spacing" textLength="111.2207" x="1105.5" y="1061.1195">comment: TEXT</text><text fill="#000000" font-family="sans-serif" font-size="14" lengthAdjust="spacing" textLength="165.0127" x="1105.5" y="1077.4164">created_at: TIMESTAMP</text></g><!--class Feedback_Types--><g class="entity" data-qualified-name="Feedback_Types" data-source-line="191" id="ent0017"><rect fill="#FFF0F5" filter="url(#f1tyquudqmp983)" height="74.8906" rx="2.5" ry="2.5" style="stroke:#181818;stroke-width:0.5;" width="249.1312" x="1487" y="993.64"/><text fill="#000000" font-family="sans-serif" font-size="14" lengthAdjust="spacing" textLength="116.0674" x="1553.5319" y="1011.6351">Feedback_Types</text><line style="stroke:#181818;stroke-width:0.5;" x1="1488" x2="1735.1312" y1="1019.9369" y2="1019.9369"/><g data-visibility-modifier="IE_MANDATORY"><ellipse cx="1498" cy="1033.5853" fill="#000000" rx="3" ry="3" style="stroke:#000000;stroke-width:1;"/></g><path d="M1514.4167,1027.4004 C1512.8067,1027.4004 1511.5,1028.7071 1511.5,1030.3171 C1511.5,1030.5038 1511.5,1030.6904 1511.535,1030.8654 L1508,1034.4004 L1508,1036.7338 L1511.5,1036.7338 L1511.5,1034.4004 L1513.8333,1034.4004 L1513.8333,1033.2338 L1513.8683,1033.1988 C1514.0433,1033.2338 1514.23,1033.2338 1514.4167,1033.2338 C1516.0267,1033.2338 1517.3333,1031.9271 1517.3333,1030.3171 C1517.3333,1028.7071 1516.0267,1027.4004 1514.4167,1027.4004 M1515,1028.5671 C1515.6417,1028.5671 1516.1667,1029.0921 1516.1667,1029.7338 C1516.1667,1030.3754 1515.6417,1030.9004 1515,1030.9004 C1514.3583,1030.9004 1513.8333,1030.3754 1513.8333,1029.7338 C1513.8333,1029.0921 1514.3583,1028.5671 1515,1028.5671" fill="#B8861B"/><text fill="#000000" font-family="sans-serif" font-size="14" font-weight="bold" lengthAdjust="spacing" textLength="136.3359" x="1523.2074" y="1036.932">feedback_type_id</text><text fill="#000000" font-family="sans-serif" font-size="14" lengthAdjust="spacing" textLength="70.5879" x="1659.5433" y="1036.932">: INTEGER</text><line style="stroke:#181818;stroke-width:1;" x1="1488" x2="1735.1312" y1="1044.2338" y2="1044.2338"/><text fill="#000000" font-family="sans-serif" font-size="14" lengthAdjust="spacing" textLength="155.6338" x="1493" y="1061.2289">type_name: VARCHAR</text></g><!--class Audit_Log--><g class="entity" data-qualified-name="Audit_Log" data-source-line="197" id="ent0018"><rect fill="#FFF0F5" filter="url(#f1tyquudqmp983)" height="245.8594" rx="2.5" ry="2.5" style="stroke:#181818;stroke-width:0.5;" width="200.3841" x="1116.5" y="623.14"/><text fill="#000000" font-family="sans-serif" font-size="14" lengthAdjust="spacing" textLength="68.9678" x="1182.2082" y="641.1351">Audit_Log</text><line style="stroke:#181818;stroke-width:0.5;" x1="1117.5" x2="1315.8841" y1="649.4369" y2="649.4369"/><g data-visibility-modifier="IE_MANDATORY"><ellipse cx="1127.5" cy="663.0853" fill="#000000" rx="3" ry="3" style="stroke:#000000;stroke-width:1;"/></g><path d="M1143.9167,656.9004 C1142.3067,656.9004 1141,658.2071 1141,659.8171 C1141,660.0038 1141,660.1904 1141.035,660.3654 L1137.5,663.9004 L1137.5,666.2338 L1141,666.2338 L1141,663.9004 L1143.3333,663.9004 L1143.3333,662.7338 L1143.3683,662.6988 C1143.5433,662.7338 1143.73,662.7338 1143.9167,662.7338 C1145.5267,662.7338 1146.8333,661.4271 1146.8333,659.8171 C1146.8333,658.2071 1145.5267,656.9004 1143.9167,656.9004 M1144.5,658.0671 C1145.1417,658.0671 1145.6667,658.5921 1145.6667,659.2338 C1145.6667,659.8754 1145.1417,660.4004 1144.5,660.4004 C1143.8583,660.4004 1143.3333,659.8754 1143.3333,659.2338 C1143.3333,658.5921 1143.8583,658.0671 1144.5,658.0671" fill="#B8861B"/><text fill="#000000" font-family="sans-serif" font-size="14" font-weight="bold" lengthAdjust="spacing" textLength="46.2588" x="1152.7074" y="666.432">log_id</text><text fill="#000000" font-family="sans-serif" font-size="14" lengthAdjust="spacing" textLength="56.9023" x="1198.9661" y="666.432">: BIGINT</text><line style="stroke:#181818;stroke-width:1;" x1="1117.5" x2="1315.8841" y1="673.7338" y2="673.7338"/><g data-visibility-modifier="IE_MANDATORY"><ellipse cx="1127.5" cy="687.3822" fill="#000000" rx="3" ry="3" style="stroke:#000000;stroke-width:1;"/></g><path d="M1143.9167,681.1973 C1142.3067,681.1973 1141,682.504 1141,684.114 C1141,684.3006 1141,684.4873 1141.035,684.6623 L1137.5,688.1973 L1137.5,690.5306 L1141,690.5306 L1141,688.1973 L1143.3333,688.1973 L1143.3333,687.0306 L1143.3683,686.9956 C1143.5433,687.0306 1143.73,687.0306 1143.9167,687.0306 C1145.5267,687.0306 1146.8333,685.724 1146.8333,684.114 C1146.8333,682.504 1145.5267,681.1973 1143.9167,681.1973 M1144.5,682.364 C1145.1417,682.364 1145.6667,682.889 1145.6667,683.5306 C1145.6667,684.1723 1145.1417,684.6973 1144.5,684.6973 C1143.8583,684.6973 1143.3333,684.1723 1143.3333,683.5306 C1143.3333,682.889 1143.8583,682.364 1144.5,682.364" fill="#AAAAAA"/><text fill="#000000" font-family="sans-serif" font-size="14" lengthAdjust="spacing" textLength="107.2148" x="1152.2835" y="690.7289">user_id: BIGINT</text><g data-visibility-modifier="IE_MANDATORY"><ellipse cx="1127.5" cy="703.6791" fill="#000000" rx="3" ry="3" style="stroke:#000000;stroke-width:1;"/></g><path d="M1143.9167,697.4942 C1142.3067,697.4942 1141,698.8008 1141,700.4108 C1141,700.5975 1141,700.7842 1141.035,700.9592 L1137.5,704.4942 L1137.5,706.8275 L1141,706.8275 L1141,704.4942 L1143.3333,704.4942 L1143.3333,703.3275 L1143.3683,703.2925 C1143.5433,703.3275 1143.73,703.3275 1143.9167,703.3275 C1145.5267,703.3275 1146.8333,702.0208 1146.8333,700.4108 C1146.8333,698.8008 1145.5267,697.4942 1143.9167,697.4942 M1144.5,698.6608 C1145.1417,698.6608 1145.6667,699.1858 1145.6667,699.8275 C1145.6667,700.4692 1145.1417,700.9942 1144.5,700.9942 C1143.8583,700.9942 1143.3333,700.4692 1143.3333,699.8275 C1143.3333,699.1858 1143.8583,698.6608 1144.5,698.6608" fill="#AAAAAA"/><text fill="#000000" font-family="sans-serif" font-size="14" lengthAdjust="spacing" textLength="158.6006" x="1152.2835" y="707.0257">resource_id: VARCHAR</text><line style="stroke:#181818;stroke-width:1;" x1="1117.5" x2="1315.8841" y1="714.3275" y2="714.3275"/><text fill="#000000" font-family="sans-serif" font-size="14" lengthAdjust="spacing" textLength="120.75" x="1122.5" y="731.3226">action: VARCHAR</text><text fill="#000000" font-family="sans-serif" font-size="14" lengthAdjust="spacing" textLength="177.0986" x="1122.5" y="747.6195">resource_type: VARCHAR</text><text fill="#000000" font-family="sans-serif" font-size="14" lengthAdjust="spacing" textLength="119.8613" x="1122.5" y="763.9164">old_value: JSONB</text><text fill="#000000" font-family="sans-serif" font-size="14" lengthAdjust="spacing" textLength="127.4561" x="1122.5" y="780.2132">new_value: JSONB</text><text fill="#000000" font-family="sans-serif" font-size="14" lengthAdjust="spacing" textLength="116.252" x="1122.5" y="796.5101">ip_address: INET</text><text fill="#000000" font-family="sans-serif" font-size="14" lengthAdjust="spacing" textLength="122.6846" x="1122.5" y="812.807">user_agent: TEXT</text><text fill="#000000" font-family="sans-serif" font-size="14" lengthAdjust="spacing" textLength="120.6748" x="1122.5" y="829.1039">status: VARCHAR</text><text fill="#000000" font-family="sans-serif" font-size="14" lengthAdjust="spacing" textLength="149.0713" x="1122.5" y="845.4007">error_message: TEXT</text><text fill="#000000" font-family="sans-serif" font-size="14" lengthAdjust="spacing" textLength="165.8262" x="1122.5" y="861.6976">timestamp: TIMESTAMP</text></g><!--class Resource_Types--><g class="entity" data-qualified-name="Resource_Types" data-source-line="214" id="ent0019"><rect fill="#FFF0F5" filter="url(#f1tyquudqmp983)" height="74.8906" rx="2.5" ry="2.5" style="stroke:#181818;stroke-width:0.5;" width="210.6995" x="1506.5" y="725.64"/><text fill="#000000" font-family="sans-serif" font-size="14" lengthAdjust="spacing" textLength="113.7705" x="1554.9645" y="743.6351">Resource_Types</text><line style="stroke:#181818;stroke-width:0.5;" x1="1507.5" x2="1716.1995" y1="751.9369" y2="751.9369"/><g data-visibility-modifier="IE_MANDATORY"><ellipse cx="1517.5" cy="765.5853" fill="#000000" rx="3" ry="3" style="stroke:#000000;stroke-width:1;"/></g><path d="M1533.9167,759.4004 C1532.3067,759.4004 1531,760.7071 1531,762.3171 C1531,762.5038 1531,762.6904 1531.035,762.8654 L1527.5,766.4004 L1527.5,768.7338 L1531,768.7338 L1531,766.4004 L1533.3333,766.4004 L1533.3333,765.2338 L1533.3683,765.1988 C1533.5433,765.2338 1533.73,765.2338 1533.9167,765.2338 C1535.5267,765.2338 1536.8333,763.9271 1536.8333,762.3171 C1536.8333,760.7071 1535.5267,759.4004 1533.9167,759.4004 M1534.5,760.5671 C1535.1417,760.5671 1535.6667,761.0921 1535.6667,761.7338 C1535.6667,762.3754 1535.1417,762.9004 1534.5,762.9004 C1533.8583,762.9004 1533.3333,762.3754 1533.3333,761.7338 C1533.3333,761.0921 1533.8583,760.5671 1534.5,760.5671" fill="#B8861B"/><text fill="#000000" font-family="sans-serif" font-size="14" font-weight="bold" lengthAdjust="spacing" textLength="90.8359" x="1542.7074" y="768.932">resource_id</text><text fill="#000000" font-family="sans-serif" font-size="14" lengthAdjust="spacing" textLength="77.6563" x="1633.5433" y="768.932">: VARCHAR</text><line style="stroke:#181818;stroke-width:1;" x1="1507.5" x2="1716.1995" y1="776.2338" y2="776.2338"/><text fill="#000000" font-family="sans-serif" font-size="14" lengthAdjust="spacing" textLength="177.0986" x="1512.5" y="793.2289">resource_type: VARCHAR</text></g><!--class Analysis_Metric--><g class="entity" data-qualified-name="Analysis_Metric" data-source-line="220" id="ent0020"><rect fill="#FFF0F5" filter="url(#f1tyquudqmp983)" height="213.2656" rx="2.5" ry="2.5" style="stroke:#181818;stroke-width:0.5;" width="248.1201" x="1487.5" y="269.14"/><text fill="#000000" font-family="sans-serif" font-size="14" lengthAdjust="spacing" textLength="108.2061" x="1557.457" y="287.1351">Analysis_Metric</text><line style="stroke:#181818;stroke-width:0.5;" x1="1488.5" x2="1734.6201" y1="295.4369" y2="295.4369"/><g data-visibility-modifier="IE_MANDATORY"><ellipse cx="1498.5" cy="309.0853" fill="#000000" rx="3" ry="3" style="stroke:#000000;stroke-width:1;"/></g><path d="M1514.9167,302.9004 C1513.3067,302.9004 1512,304.2071 1512,305.8171 C1512,306.0038 1512,306.1904 1512.035,306.3654 L1508.5,309.9004 L1508.5,312.2338 L1512,312.2338 L1512,309.9004 L1514.3333,309.9004 L1514.3333,308.7338 L1514.3683,308.6988 C1514.5433,308.7338 1514.73,308.7338 1514.9167,308.7338 C1516.5267,308.7338 1517.8333,307.4271 1517.8333,305.8171 C1517.8333,304.2071 1516.5267,302.9004 1514.9167,302.9004 M1515.5,304.0671 C1516.1417,304.0671 1516.6667,304.5921 1516.6667,305.2338 C1516.6667,305.8754 1516.1417,306.4004 1515.5,306.4004 C1514.8583,306.4004 1514.3333,305.8754 1514.3333,305.2338 C1514.3333,304.5921 1514.8583,304.0671 1515.5,304.0671" fill="#B8861B"/><text fill="#000000" font-family="sans-serif" font-size="14" font-weight="bold" lengthAdjust="spacing" textLength="72.5977" x="1523.7074" y="312.432">metric_id</text><text fill="#000000" font-family="sans-serif" font-size="14" lengthAdjust="spacing" textLength="44.5703" x="1596.305" y="312.432">: UUID</text><line style="stroke:#181818;stroke-width:1;" x1="1488.5" x2="1734.6201" y1="319.7338" y2="319.7338"/><g data-visibility-modifier="IE_MANDATORY"><ellipse cx="1498.5" cy="333.3822" fill="#000000" rx="3" ry="3" style="stroke:#000000;stroke-width:1;"/></g><path d="M1514.9167,327.1973 C1513.3067,327.1973 1512,328.504 1512,330.114 C1512,330.3006 1512,330.4873 1512.035,330.6623 L1508.5,334.1973 L1508.5,336.5306 L1512,336.5306 L1512,334.1973 L1514.3333,334.1973 L1514.3333,333.0306 L1514.3683,332.9956 C1514.5433,333.0306 1514.73,333.0306 1514.9167,333.0306 C1516.5267,333.0306 1517.8333,331.724 1517.8333,330.114 C1517.8333,328.504 1516.5267,327.1973 1514.9167,327.1973 M1515.5,328.364 C1516.1417,328.364 1516.6667,328.889 1516.6667,329.5306 C1516.6667,330.1723 1516.1417,330.6973 1515.5,330.6973 C1514.8583,330.6973 1514.3333,330.1723 1514.3333,329.5306 C1514.3333,328.889 1514.8583,328.364 1515.5,328.364" fill="#AAAAAA"/><text fill="#000000" font-family="sans-serif" font-size="14" lengthAdjust="spacing" textLength="116.1699" x="1523.2835" y="336.7289">session_id: UUID</text><line style="stroke:#181818;stroke-width:1;" x1="1488.5" x2="1734.6201" y1="344.0306" y2="344.0306"/><text fill="#000000" font-family="sans-serif" font-size="14" lengthAdjust="spacing" textLength="186.6143" x="1493.5" y="361.0257">llm_tokens_used: INTEGER</text><text fill="#000000" font-family="sans-serif" font-size="14" lengthAdjust="spacing" textLength="203.7588" x="1493.5" y="377.3226">search_latency_ms: INTEGER</text><text fill="#000000" font-family="sans-serif" font-size="14" lengthAdjust="spacing" textLength="236.1201" x="1493.5" y="393.6195">embedding_latency_ms: INTEGER</text><text fill="#000000" font-family="sans-serif" font-size="14" lengthAdjust="spacing" textLength="196.4443" x="1493.5" y="409.9164">total_duration_ms: INTEGER</text><text fill="#000000" font-family="sans-serif" font-size="14" lengthAdjust="spacing" textLength="159.5098" x="1493.5" y="426.2132">chunk_count: INTEGER</text><text fill="#000000" font-family="sans-serif" font-size="14" lengthAdjust="spacing" textLength="157.001" x="1493.5" y="442.5101">result_count: INTEGER</text><text fill="#000000" font-family="sans-serif" font-size="14" lengthAdjust="spacing" textLength="181.542" x="1493.5" y="458.807">confidence_avg: DECIMAL</text><text fill="#000000" font-family="sans-serif" font-size="14" lengthAdjust="spacing" textLength="165.8262" x="1493.5" y="475.1039">timestamp: TIMESTAMP</text></g><!--class Qdrant--><g class="entity" data-qualified-name="Qdrant" data-source-line="235" id="ent0021"><rect fill="#CD5C5C" filter="url(#f1tyquudqmp983)" height="50.5938" rx="2.5" ry="2.5" style="stroke:#181818;stroke-width:0.5;" width="210.9388" x="1861.5" y="153.64"/><text fill="#000000" font-family="sans-serif" font-size="14" lengthAdjust="spacing" textLength="48.6035" x="1942.6676" y="171.6351">Qdrant</text><line style="stroke:#181818;stroke-width:0.5;" x1="1862.5" x2="2071.4388" y1="179.9369" y2="179.9369"/><text fill="#000000" font-family="sans-serif" font-size="14" font-weight="bold" lengthAdjust="spacing" textLength="4.874" x="1867.5" y="196.932">&#160;</text><path d="M1879.7907,187.4004 C1878.1807,187.4004 1876.874,188.7071 1876.874,190.3171 C1876.874,190.5038 1876.874,190.6904 1876.909,190.8654 L1873.374,194.4004 L1873.374,196.7338 L1876.874,196.7338 L1876.874,194.4004 L1879.2074,194.4004 L1879.2074,193.2338 L1879.2424,193.1988 C1879.4174,193.2338 1879.604,193.2338 1879.7907,193.2338 C1881.4007,193.2338 1882.7074,191.9271 1882.7074,190.3171 C1882.7074,188.7071 1881.4007,187.4004 1879.7907,187.4004 M1880.374,188.5671 C1881.0157,188.5671 1881.5407,189.0921 1881.5407,189.7338 C1881.5407,190.3754 1881.0157,190.9004 1880.374,190.9004 C1879.7324,190.9004 1879.2074,190.3754 1879.2074,189.7338 C1879.2074,189.0921 1879.7324,188.5671 1880.374,188.5671" fill="#B8861B"/><text fill="#000000" font-family="sans-serif" font-size="14" font-weight="bold" lengthAdjust="spacing" textLength="167.3848" x="1888.5814" y="196.932">embedding_vector_id</text><text fill="#000000" font-family="sans-serif" font-size="14" font-weight="bold" lengthAdjust="spacing" textLength="5.5986" x="2055.9661" y="196.932">:</text></g><!--link Payments_Types to Payments--><g class="link" data-entity-1="ent0014" data-entity-2="ent0013" data-link-type="crowfoot" data-source-line="240" id="lnk22"><path codeLine="240" d="M262,583.64 C310.44,583.64 296.56,583.64 345,583.64" fill="none" id="Payments_Types-Payments" style="stroke:#181818;stroke-width:1;"/><line style="stroke:#181818;stroke-width:1;" x1="258" x2="258" y1="587.64" y2="579.64"/><line style="stroke:#181818;stroke-width:1;" x1="261" x2="261" y1="587.64" y2="579.64"/><line style="stroke:#181818;stroke-width:1;" x1="262" x2="254" y1="583.64" y2="583.64"/><line style="stroke:#181818;stroke-width:1;" x1="355" x2="363" y1="583.64" y2="577.64"/><line style="stroke:#181818;stroke-width:1;" x1="355" x2="363" y1="583.64" y2="589.64"/><line style="stroke:#181818;stroke-width:1;" x1="355" x2="363" y1="583.64" y2="583.64"/><ellipse cx="349" cy="583.64" fill="none" rx="4" ry="4" style="stroke:#181818;stroke-width:1;"/></g><!--link Payments to Users--><g class="link" data-entity-1="ent0013" data-entity-2="ent0002" data-link-type="crowfoot" data-source-line="241" id="lnk23"><path codeLine="241" d="M615,567.64 C697.63,567.64 650.87,684.64 733.5,684.64" fill="none" id="Payments-Users" style="stroke:#181818;stroke-width:1;"/><line style="stroke:#181818;stroke-width:1;" x1="605" x2="597" y1="567.64" y2="573.64"/><line style="stroke:#181818;stroke-width:1;" x1="605" x2="597" y1="567.64" y2="561.64"/><line style="stroke:#181818;stroke-width:1;" x1="605" x2="597" y1="567.64" y2="567.64"/><ellipse cx="611" cy="567.64" fill="none" rx="4" ry="4" style="stroke:#181818;stroke-width:1;"/><line style="stroke:#181818;stroke-width:1;" x1="737.5" x2="737.5" y1="680.64" y2="688.64"/><line style="stroke:#181818;stroke-width:1;" x1="734.5" x2="734.5" y1="680.64" y2="688.64"/><line style="stroke:#181818;stroke-width:1;" x1="733.5" x2="741.5" y1="684.64" y2="684.64"/></g><!--link Tariff to Users--><g class="link" data-entity-1="ent0011" data-entity-2="ent0002" data-link-type="crowfoot" data-source-line="242" id="lnk24"><path codeLine="242" d="M620,825.64 C697.57,825.64 645.93,708.64 723.5,708.64" fill="none" id="Tariff-Users" style="stroke:#181818;stroke-width:1;"/><line style="stroke:#181818;stroke-width:1;" x1="616" x2="616" y1="829.64" y2="821.64"/><line style="stroke:#181818;stroke-width:1;" x1="619" x2="619" y1="829.64" y2="821.64"/><line style="stroke:#181818;stroke-width:1;" x1="620" x2="612" y1="825.64" y2="825.64"/><line style="stroke:#181818;stroke-width:1;" x1="733.5" x2="741.5" y1="708.64" y2="702.64"/><line style="stroke:#181818;stroke-width:1;" x1="733.5" x2="741.5" y1="708.64" y2="714.64"/><line style="stroke:#181818;stroke-width:1;" x1="733.5" x2="741.5" y1="708.64" y2="708.64"/><ellipse cx="727.5" cy="708.64" fill="none" rx="4" ry="4" style="stroke:#181818;stroke-width:1;"/></g><!--link Rate_Limit_Log to Tariff--><g class="link" data-entity-1="ent0015" data-entity-2="ent0011" data-link-type="crowfoot" data-source-line="243" id="lnk25"><path codeLine="243" d="M247,825.64 C299.89,825.64 287.11,825.64 340,825.64" fill="none" id="Rate_Limit_Log-Tariff" style="stroke:#181818;stroke-width:1;"/><line style="stroke:#181818;stroke-width:1;" x1="237" x2="229" y1="825.64" y2="831.64"/><line style="stroke:#181818;stroke-width:1;" x1="237" x2="229" y1="825.64" y2="819.64"/><line style="stroke:#181818;stroke-width:1;" x1="237" x2="229" y1="825.64" y2="825.64"/><ellipse cx="243" cy="825.64" fill="none" rx="4" ry="4" style="stroke:#181818;stroke-width:1;"/><line style="stroke:#181818;stroke-width:1;" x1="344" x2="344" y1="821.64" y2="829.64"/><line style="stroke:#181818;stroke-width:1;" x1="341" x2="341" y1="821.64" y2="829.64"/><line style="stroke:#181818;stroke-width:1;" x1="340" x2="348" y1="825.64" y2="825.64"/></g><!--link File_Format to Sessions--><g class="link" data-entity-1="ent0012" data-entity-2="ent0003" data-link-type="crowfoot" data-source-line="244" id="lnk26"><path codeLine="244" d="M953.5,256.64 C1019.31,256.64 982.69,354.64 1048.5,354.64" fill="none" id="File_Format-Sessions" style="stroke:#181818;stroke-width:1;"/><line style="stroke:#181818;stroke-width:1;" x1="949.5" x2="949.5" y1="260.64" y2="252.64"/><line style="stroke:#181818;stroke-width:1;" x1="952.5" x2="952.5" y1="260.64" y2="252.64"/><line style="stroke:#181818;stroke-width:1;" x1="953.5" x2="945.5" y1="256.64" y2="256.64"/><line style="stroke:#181818;stroke-width:1;" x1="1048.5" x2="1056.5" y1="354.64" y2="348.64"/><line style="stroke:#181818;stroke-width:1;" x1="1048.5" x2="1056.5" y1="354.64" y2="360.64"/><line style="stroke:#181818;stroke-width:1;" x1="1048.5" x2="1056.5" y1="354.64" y2="354.64"/><line style="stroke:#181818;stroke-width:1;" x1="1046.5" x2="1046.5" y1="350.64" y2="358.64"/></g><!--link Users to Feedback--><g class="link" data-entity-1="ent0002" data-entity-2="ent0016" data-link-type="crowfoot" data-source-line="245" id="lnk27"><path codeLine="245" d="M935.5,684.64 C1100.69,684.64 915.31,1014.64 1080.5,1014.64" fill="none" id="Users-Feedback" style="stroke:#181818;stroke-width:1;"/><line style="stroke:#181818;stroke-width:1;" x1="931.5" x2="931.5" y1="688.64" y2="680.64"/><line style="stroke:#181818;stroke-width:1;" x1="934.5" x2="934.5" y1="688.64" y2="680.64"/><line style="stroke:#181818;stroke-width:1;" x1="935.5" x2="927.5" y1="684.64" y2="684.64"/><line style="stroke:#181818;stroke-width:1;" x1="1090.5" x2="1098.5" y1="1014.64" y2="1008.64"/><line style="stroke:#181818;stroke-width:1;" x1="1090.5" x2="1098.5" y1="1014.64" y2="1020.64"/><line style="stroke:#181818;stroke-width:1;" x1="1090.5" x2="1098.5" y1="1014.64" y2="1014.64"/><ellipse cx="1084.5" cy="1014.64" fill="none" rx="4" ry="4" style="stroke:#181818;stroke-width:1;"/></g><!--link Feedback to Feedback_Types--><g class="link" data-entity-1="ent0016" data-entity-2="ent0017" data-link-type="crowfoot" data-source-line="246" id="lnk28"><path codeLine="246" d="M1342.5,1031.64 C1409.61,1031.64 1400.39,1031.64 1467.5,1031.64" fill="none" id="Feedback-Feedback_Types" style="stroke:#181818;stroke-width:1;"/><line style="stroke:#181818;stroke-width:1;" x1="1338.5" x2="1338.5" y1="1035.64" y2="1027.64"/><line style="stroke:#181818;stroke-width:1;" x1="1341.5" x2="1341.5" y1="1035.64" y2="1027.64"/><line style="stroke:#181818;stroke-width:1;" x1="1342.5" x2="1334.5" y1="1031.64" y2="1031.64"/><line style="stroke:#181818;stroke-width:1;" x1="1477.5" x2="1485.5" y1="1031.64" y2="1025.64"/><line style="stroke:#181818;stroke-width:1;" x1="1477.5" x2="1485.5" y1="1031.64" y2="1037.64"/><line style="stroke:#181818;stroke-width:1;" x1="1477.5" x2="1485.5" y1="1031.64" y2="1031.64"/><ellipse cx="1471.5" cy="1031.64" fill="none" rx="4" ry="4" style="stroke:#181818;stroke-width:1;"/></g><!--link Feedback to Analysis_Results--><g class="link" data-entity-1="ent0016" data-entity-2="ent0005" data-link-type="association" data-source-line="247" id="lnk29"><path codeLine="247" d="M1342.5,998.64 C1402.18,998.64 1405,973.7 1463,959.64 C1777.62,883.4 1847.78,828.64 2171.5,828.64" fill="none" id="Feedback-Analysis_Results" style="stroke:#181818;stroke-width:1;stroke-dasharray:7,7;"/><line style="stroke:#181818;stroke-width:1;" x1="1338.5" x2="1338.5" y1="1002.64" y2="994.64"/><line style="stroke:#181818;stroke-width:1;" x1="1341.5" x2="1341.5" y1="1002.64" y2="994.64"/><line style="stroke:#181818;stroke-width:1;" x1="1342.5" x2="1334.5" y1="998.64" y2="998.64"/><line style="stroke:#181818;stroke-width:1;" x1="2175.5" x2="2175.5" y1="824.64" y2="832.64"/><line style="stroke:#181818;stroke-width:1;" x1="2172.5" x2="2172.5" y1="824.64" y2="832.64"/><line style="stroke:#181818;stroke-width:1;" x1="2171.5" x2="2179.5" y1="828.64" y2="828.64"/></g><!--link Users to Sessions--><g class="link" data-entity-1="ent0002" data-entity-2="ent0003" data-link-type="crowfoot" data-source-line="248" id="lnk30"><path codeLine="248" d="M935.5,684.64 C1079.41,684.64 894.59,387.64 1038.5,387.64" fill="none" id="Users-Sessions" style="stroke:#181818;stroke-width:1;"/><line style="stroke:#181818;stroke-width:1;" x1="931.5" x2="931.5" y1="688.64" y2="680.64"/><line style="stroke:#181818;stroke-width:1;" x1="934.5" x2="934.5" y1="688.64" y2="680.64"/><line style="stroke:#181818;stroke-width:1;" x1="935.5" x2="927.5" y1="684.64" y2="684.64"/><line style="stroke:#181818;stroke-width:1;" x1="1048.5" x2="1056.5" y1="387.64" y2="381.64"/><line style="stroke:#181818;stroke-width:1;" x1="1048.5" x2="1056.5" y1="387.64" y2="393.64"/><line style="stroke:#181818;stroke-width:1;" x1="1048.5" x2="1056.5" y1="387.64" y2="387.64"/><ellipse cx="1042.5" cy="387.64" fill="none" rx="4" ry="4" style="stroke:#181818;stroke-width:1;"/></g><!--link Users to Audit_Log--><g class="link" data-entity-1="ent0002" data-entity-2="ent0018" data-link-type="crowfoot" data-source-line="249" id="lnk31"><path codeLine="249" d="M935.5,684.64 C1019.06,684.64 1013.94,684.64 1097.5,684.64" fill="none" id="Users-Audit_Log" style="stroke:#181818;stroke-width:1;"/><line style="stroke:#181818;stroke-width:1;" x1="931.5" x2="931.5" y1="688.64" y2="680.64"/><line style="stroke:#181818;stroke-width:1;" x1="934.5" x2="934.5" y1="688.64" y2="680.64"/><line style="stroke:#181818;stroke-width:1;" x1="935.5" x2="927.5" y1="684.64" y2="684.64"/><line style="stroke:#181818;stroke-width:1;" x1="1107.5" x2="1115.5" y1="684.64" y2="678.64"/><line style="stroke:#181818;stroke-width:1;" x1="1107.5" x2="1115.5" y1="684.64" y2="690.64"/><line style="stroke:#181818;stroke-width:1;" x1="1107.5" x2="1115.5" y1="684.64" y2="684.64"/><ellipse cx="1101.5" cy="684.64" fill="none" rx="4" ry="4" style="stroke:#181818;stroke-width:1;"/></g><!--link Audit_Log to Resource_Types--><g class="link" data-entity-1="ent0018" data-entity-2="ent0019" data-link-type="crowfoot" data-source-line="250" id="lnk32"><path codeLine="250" d="M1325.5,700.64 C1413.62,700.64 1399.38,763.64 1487.5,763.64" fill="none" id="Audit_Log-Resource_Types" style="stroke:#181818;stroke-width:1;"/><line style="stroke:#181818;stroke-width:1;" x1="1321.5" x2="1321.5" y1="704.64" y2="696.64"/><line style="stroke:#181818;stroke-width:1;" x1="1324.5" x2="1324.5" y1="704.64" y2="696.64"/><line style="stroke:#181818;stroke-width:1;" x1="1325.5" x2="1317.5" y1="700.64" y2="700.64"/><line style="stroke:#181818;stroke-width:1;" x1="1497.5" x2="1505.5" y1="763.64" y2="757.64"/><line style="stroke:#181818;stroke-width:1;" x1="1497.5" x2="1505.5" y1="763.64" y2="769.64"/><line style="stroke:#181818;stroke-width:1;" x1="1497.5" x2="1505.5" y1="763.64" y2="763.64"/><ellipse cx="1491.5" cy="763.64" fill="none" rx="4" ry="4" style="stroke:#181818;stroke-width:1;"/></g><!--link Sessions to Chunks--><g class="link" data-entity-1="ent0003" data-entity-2="ent0004" data-link-type="crowfoot" data-source-line="252" id="lnk33"><path codeLine="252" d="M1384.5,330.64 C1503.18,330.64 1338.82,82.64 1457.5,82.64" fill="none" id="Sessions-Chunks" style="stroke:#181818;stroke-width:1;"/><line style="stroke:#181818;stroke-width:1;" x1="1380.5" x2="1380.5" y1="334.64" y2="326.64"/><line style="stroke:#181818;stroke-width:1;" x1="1383.5" x2="1383.5" y1="334.64" y2="326.64"/><line style="stroke:#181818;stroke-width:1;" x1="1384.5" x2="1376.5" y1="330.64" y2="330.64"/><line style="stroke:#181818;stroke-width:1;" x1="1467.5" x2="1475.5" y1="82.64" y2="76.64"/><line style="stroke:#181818;stroke-width:1;" x1="1467.5" x2="1475.5" y1="82.64" y2="88.64"/><line style="stroke:#181818;stroke-width:1;" x1="1467.5" x2="1475.5" y1="82.64" y2="82.64"/><ellipse cx="1461.5" cy="82.64" fill="none" rx="4" ry="4" style="stroke:#181818;stroke-width:1;"/></g><!--link Sessions to Analysis_Metric--><g class="link" data-entity-1="ent0003" data-entity-2="ent0020" data-link-type="crowfoot" data-source-line="254" id="lnk34"><path codeLine="254" d="M1384.5,330.64 C1433.39,330.64 1419.61,330.64 1468.5,330.64" fill="none" id="Sessions-Analysis_Metric" style="stroke:#181818;stroke-width:1;"/><line style="stroke:#181818;stroke-width:1;" x1="1380.5" x2="1380.5" y1="334.64" y2="326.64"/><line style="stroke:#181818;stroke-width:1;" x1="1383.5" x2="1383.5" y1="334.64" y2="326.64"/><line style="stroke:#181818;stroke-width:1;" x1="1384.5" x2="1376.5" y1="330.64" y2="330.64"/><line style="stroke:#181818;stroke-width:1;" x1="1478.5" x2="1486.5" y1="330.64" y2="324.64"/><line style="stroke:#181818;stroke-width:1;" x1="1478.5" x2="1486.5" y1="330.64" y2="336.64"/><line style="stroke:#181818;stroke-width:1;" x1="1478.5" x2="1486.5" y1="330.64" y2="330.64"/><ellipse cx="1472.5" cy="330.64" fill="none" rx="4" ry="4" style="stroke:#181818;stroke-width:1;"/></g><!--link Sessions to Jurisdictions--><g class="link" data-entity-1="ent0003" data-entity-2="ent0009" data-link-type="crowfoot" data-source-line="256" id="lnk35"><path codeLine="256" d="M1384.5,403.64 C1476.13,403.64 1369.87,587.64 1461.5,587.64" fill="none" id="Sessions-Jurisdictions" style="stroke:#181818;stroke-width:1;"/><line style="stroke:#181818;stroke-width:1;" x1="1380.5" x2="1380.5" y1="407.64" y2="399.64"/><line style="stroke:#181818;stroke-width:1;" x1="1383.5" x2="1383.5" y1="407.64" y2="399.64"/><line style="stroke:#181818;stroke-width:1;" x1="1384.5" x2="1376.5" y1="403.64" y2="403.64"/><line style="stroke:#181818;stroke-width:1;" x1="1461.5" x2="1469.5" y1="587.64" y2="581.64"/><line style="stroke:#181818;stroke-width:1;" x1="1461.5" x2="1469.5" y1="587.64" y2="593.64"/><line style="stroke:#181818;stroke-width:1;" x1="1461.5" x2="1469.5" y1="587.64" y2="587.64"/><line style="stroke:#181818;stroke-width:1;" x1="1459.5" x2="1459.5" y1="583.64" y2="591.64"/></g><!--link Chunks to Analysis_Results--><g class="link" data-entity-1="ent0004" data-entity-2="ent0005" data-link-type="crowfoot" data-source-line="257" id="lnk36"><path codeLine="257" d="M1755.5,58.64 C1911.43,58.64 1986.23,6 2093,119.64 C2210.3,244.48 1990.2,885.64 2161.5,885.64" fill="none" id="Chunks-Analysis_Results" style="stroke:#181818;stroke-width:1;"/><line style="stroke:#181818;stroke-width:1;" x1="1751.5" x2="1751.5" y1="62.64" y2="54.64"/><line style="stroke:#181818;stroke-width:1;" x1="1754.5" x2="1754.5" y1="62.64" y2="54.64"/><line style="stroke:#181818;stroke-width:1;" x1="1755.5" x2="1747.5" y1="58.64" y2="58.64"/><line style="stroke:#181818;stroke-width:1;" x1="2171.5" x2="2179.5" y1="885.64" y2="879.64"/><line style="stroke:#181818;stroke-width:1;" x1="2171.5" x2="2179.5" y1="885.64" y2="891.64"/><line style="stroke:#181818;stroke-width:1;" x1="2171.5" x2="2179.5" y1="885.64" y2="885.64"/><ellipse cx="2165.5" cy="885.64" fill="none" rx="4" ry="4" style="stroke:#181818;stroke-width:1;"/></g><!--link Chunks to Qdrant--><g class="link" data-entity-1="ent0004" data-entity-2="ent0021" data-link-type="crowfoot" data-source-line="258" id="lnk37"><path codeLine="258" d="M1765.5,98.64 C1830.54,98.64 1787.46,191.64 1852.5,191.64" fill="none" id="Chunks-Qdrant" style="stroke:#181818;stroke-width:1;"/><line style="stroke:#181818;stroke-width:1;" x1="1755.5" x2="1747.5" y1="98.64" y2="104.64"/><line style="stroke:#181818;stroke-width:1;" x1="1755.5" x2="1747.5" y1="98.64" y2="92.64"/><line style="stroke:#181818;stroke-width:1;" x1="1755.5" x2="1747.5" y1="98.64" y2="98.64"/><ellipse cx="1761.5" cy="98.64" fill="none" rx="4" ry="4" style="stroke:#181818;stroke-width:1;"/><line style="stroke:#181818;stroke-width:1;" x1="1856.5" x2="1856.5" y1="187.64" y2="195.64"/><line style="stroke:#181818;stroke-width:1;" x1="1853.5" x2="1853.5" y1="187.64" y2="195.64"/><line style="stroke:#181818;stroke-width:1;" x1="1852.5" x2="1860.5" y1="191.64" y2="191.64"/></g><!--link Analysis_Results to Analysis_Types--><g class="link" data-entity-1="ent0005" data-entity-2="ent0006" data-link-type="crowfoot" data-source-line="259" id="lnk38"><path codeLine="259" d="M2421.5,868.64 C2462.83,868.64 2457.17,868.64 2498.5,868.64" fill="none" id="Analysis_Results-Analysis_Types" style="stroke:#181818;stroke-width:1;"/><line style="stroke:#181818;stroke-width:1;" x1="2421.5" x2="2413.5" y1="868.64" y2="874.64"/><line style="stroke:#181818;stroke-width:1;" x1="2421.5" x2="2413.5" y1="868.64" y2="862.64"/><line style="stroke:#181818;stroke-width:1;" x1="2421.5" x2="2413.5" y1="868.64" y2="868.64"/><line style="stroke:#181818;stroke-width:1;" x1="2423.5" x2="2423.5" y1="872.64" y2="864.64"/><line style="stroke:#181818;stroke-width:1;" x1="2502.5" x2="2502.5" y1="864.64" y2="872.64"/><line style="stroke:#181818;stroke-width:1;" x1="2499.5" x2="2499.5" y1="864.64" y2="872.64"/><line style="stroke:#181818;stroke-width:1;" x1="2498.5" x2="2506.5" y1="868.64" y2="868.64"/></g><!--link Risk_Definitions to Analysis_Results--><g class="link" data-entity-1="ent0007" data-entity-2="ent0005" data-link-type="crowfoot" data-source-line="260" id="lnk39"><path codeLine="260" d="M2094.5,1027.64 C2163.74,1027.64 2092.26,902.64 2161.5,902.64" fill="none" id="Risk_Definitions-Analysis_Results" style="stroke:#181818;stroke-width:1;"/><line style="stroke:#181818;stroke-width:1;" x1="2090.5" x2="2090.5" y1="1031.64" y2="1023.64"/><line style="stroke:#181818;stroke-width:1;" x1="2093.5" x2="2093.5" y1="1031.64" y2="1023.64"/><line style="stroke:#181818;stroke-width:1;" x1="2094.5" x2="2086.5" y1="1027.64" y2="1027.64"/><line style="stroke:#181818;stroke-width:1;" x1="2171.5" x2="2179.5" y1="902.64" y2="896.64"/><line style="stroke:#181818;stroke-width:1;" x1="2171.5" x2="2179.5" y1="902.64" y2="908.64"/><line style="stroke:#181818;stroke-width:1;" x1="2171.5" x2="2179.5" y1="902.64" y2="902.64"/><ellipse cx="2165.5" cy="902.64" fill="none" rx="4" ry="4" style="stroke:#181818;stroke-width:1;"/></g><!--link Risk_Definitions to Risk_Categories--><g class="link" data-entity-1="ent0007" data-entity-2="ent0008" data-link-type="crowfoot" data-source-line="261" id="lnk40"><path codeLine="261" d="M2104.5,1051.64 C2138.94,1051.64 2149.5401,1057.3918 2181.9701,1068.0518" fill="none" id="Risk_Definitions-Risk_Categories" style="stroke:#181818;stroke-width:1;"/><line style="stroke:#181818;stroke-width:1;" x1="2094.5" x2="2086.5" y1="1051.64" y2="1057.64"/><line style="stroke:#181818;stroke-width:1;" x1="2094.5" x2="2086.5" y1="1051.64" y2="1045.64"/><line style="stroke:#181818;stroke-width:1;" x1="2094.5" x2="2086.5" y1="1051.64" y2="1051.64"/><ellipse cx="2100.5" cy="1051.64" fill="none" rx="4" ry="4" style="stroke:#181818;stroke-width:1;"/><line style="stroke:#181818;stroke-width:1;" x1="2187.0191" x2="2184.5209" y1="1065.5009" y2="1073.1009"/><line style="stroke:#181818;stroke-width:1;" x1="2184.1691" x2="2181.671" y1="1064.5641" y2="1072.1641"/><line style="stroke:#181818;stroke-width:1;" x1="2181.9701" x2="2189.57" y1="1068.0518" y2="1070.55"/></g><!--link Jurisdictions to Risk_Definitions--><g class="link" data-entity-1="ent0009" data-entity-2="ent0007" data-link-type="crowfoot" data-source-line="262" id="lnk41"><path codeLine="262" d="M1761.5,587.64 C1978.8,587.64 1611.2,1067.64 1828.5,1067.64" fill="none" id="Jurisdictions-Risk_Definitions" style="stroke:#181818;stroke-width:1;"/><line style="stroke:#181818;stroke-width:1;" x1="1757.5" x2="1757.5" y1="591.64" y2="583.64"/><line style="stroke:#181818;stroke-width:1;" x1="1760.5" x2="1760.5" y1="591.64" y2="583.64"/><line style="stroke:#181818;stroke-width:1;" x1="1761.5" x2="1753.5" y1="587.64" y2="587.64"/><line style="stroke:#181818;stroke-width:1;" x1="1838.5" x2="1846.5" y1="1067.64" y2="1061.64"/><line style="stroke:#181818;stroke-width:1;" x1="1838.5" x2="1846.5" y1="1067.64" y2="1073.64"/><line style="stroke:#181818;stroke-width:1;" x1="1838.5" x2="1846.5" y1="1067.64" y2="1067.64"/><ellipse cx="1832.5" cy="1067.64" fill="none" rx="4" ry="4" style="stroke:#181818;stroke-width:1;"/></g><!--link Document_Types to Sessions--><g class="link" data-entity-1="ent0010" data-entity-2="ent0003" data-link-type="crowfoot" data-source-line="263" id="lnk42"><path codeLine="263" d="M971.5,431.64 C1020.93,431.64 999.07,370.64 1048.5,370.64" fill="none" id="Document_Types-Sessions" style="stroke:#181818;stroke-width:1;"/><line style="stroke:#181818;stroke-width:1;" x1="971.5" x2="963.5" y1="431.64" y2="437.64"/><line style="stroke:#181818;stroke-width:1;" x1="971.5" x2="963.5" y1="431.64" y2="425.64"/><line style="stroke:#181818;stroke-width:1;" x1="971.5" x2="963.5" y1="431.64" y2="431.64"/><line style="stroke:#181818;stroke-width:1;" x1="973.5" x2="973.5" y1="435.64" y2="427.64"/><line style="stroke:#181818;stroke-width:1;" x1="1052.5" x2="1052.5" y1="366.64" y2="374.64"/><line style="stroke:#181818;stroke-width:1;" x1="1049.5" x2="1049.5" y1="366.64" y2="374.64"/><line style="stroke:#181818;stroke-width:1;" x1="1048.5" x2="1056.5" y1="370.64" y2="370.64"/></g><?plantuml-src lLXTSjis47xdAP39JDLanadwa8n7utX6iQJK6V-aifpf6mSY80arIR00Q5kDSuQUeLVeItiCzqPTaW99a015DPdgoSRkWllxxM87JzIQHXGb8MQnDrWpGX6S89bmvUN_HLIjEId-3fW8Gkfv8Lqgf3WIRBLMY3110yLuxCaR5YTOu0Z9DIRyZiKhf4HA4VoyGKKLF8r9m4LC1Jgi4q8MKxL9AE82lbgxB-Q4IfgWDwzgXmB7DzdXuIlFyvuGkWHfb0WMOR7nR-Zc-_jdw6XnV1Jma8lXqyNXuPiVuD_lW7Hyz38_FKRtHoyNnwNqaWlALd4flHN5-QybwdcPPJHMJ6tGjQH2ei_vKVPxRgYI0jLdvDaGlJjzVtenBzaE3ceIzSyhBDXoMSY0mEJzP6OJKZIaA_06CBRkbkb21e8bMN1y2HUg8HgFvXCx0ur9WyoaZo6ojnHklhmycumkIb8WA5QK-1Ykd9-UJwxce_EF9JLDI0ULWCfswXV3erTKIb3CxLHPCEpdroKBgGy74LQ6Sv63d_0WZK0ZFqjCUpXCWIhKtNo_f899mlBIsHdcNEiOHn2AJwFPoO-ZcKcIx3VgBpQAolOr8OvNALvHFu0gAkKX34kSXWeDPjU3MkH2ZacMB2gL5jwFaulnwSNxIY0HFCZ24AzyaWgS6nDPbA12SE57m0gQGDmdFyzx9rEkqgviELcd00VEN0aoydwPqfLU9YUD5fIGp0Ut08Ly6_vce6eVAhI9Kv0JRLyLL4NlLSDHIXRtm_7Lfyd9_7BMquUwv3AGw7BYACRXHaBTpwY4UBlTANBwL_lJLNHOwz6twEWjDAWuW1ntnjaKWDgxsLrrMQFo9Rsb0hpJZcZ0u-NsknBw6RMalTRB4arecpm2Q25vrVIk2KV4vk0fYPvENqzVZq-SSUlXs7fpoPZigAFu3OLAXoHWISYoB1vFJaxFHsSrvqZbP32Dc6N166SjcAaSyNUPqIjwbe07uDCLXqk-DJxdjzizjSNEZZI2sKPtuNrI1AwJ-Ma_mEzewoM-PzFQL_TuIsnF2h-p7XbgXiWAdfh3vM-RDqsbFjHYkrkblJB1OBO7m62n6z6tPvjcZVMiqWyCUems_S2WvNBajdLlX9ldWx3J2CkSRCsQBPy3pGeYt1lGDf8HpCAD7xA8ASit8XwhTOjUad4OyZlf4qeJNwDlUvxUSYsm2jP-DLEr6K55dg68BzCauTb4ttyqD_qwpUR6QJu8xymKrz1iRvevcztH4Ojedcvjag2_fl2Kb3uFX6cLgVT7lCcIrZsR90L3eUZrzUbuTtDepUokmKJVtQeOrECPvz85Hp1dA4i7JOM0uS7ICRGQZJczocTu6qki0Siok7H2E_ISfDyJJSUY9-0ulRS7tZIw2vZXdsMLvv_n5IWmdRwQldOg4FBLVZDhyzsElkwrNevVMUzilBPBMb1aGwkhvrRI-u1IGacxxXMK5kH3bEmeUn1VuE1cfw-MMyRz7DRnCEZshEkvhhNegBZwR92FI-e_3jFQDsKwz_JGjyldKKh-hrHs1v2d8g0xtx05lDXmV7k17UPvIFnR7AP0-d1rUV6k9CJqpavWq3W9WMlpjSAaKZot28QaLhnTiDYrXEXPFZDjNRyKwUtD3gyv7dpdLC6uibE3A6VRfnaQxtINI1X6Vlu6b3w4WRGpNr8iO9O9eV2WXTbtGkNQf8jBSON3xkLIyUXtuEOMaHpKsXCUtwxQFRWZBL0zB3yHQBamI9t6XE5uHaaz86P4xDkYvyzri0VexTktwF6Fnp__-VtnhyU_ityzizCEXurMYXuU3Wxuvx8XjnYyYh850lI57nmyF1IBw_BKAyRjuR3iQFhgBLzvxfczjownlRbrbLUREOT3SwZCF_FmkTpwDkcUgQVMIaDsPK1rqiJdfepsPPElTaNPpa3snGkmgRaXgx4uDAmCqXhQ-KhehnXhHpKWqG8c51aidbTzjIfdBLYiIkiKRz35txQv9jbBiC0gGwucs7XVwqmm7kajBazReJT-RcrRoy5IrbAAEdcBWhQoUErFDFTgwCj3VekvdclpUStL5uIns6svpTaoM4HhknDjHcFzifMkCNhTRYwJhVMnPZpCvSDmsDmkQ9TKSMzoU0DxPJI1HfV7m8bL5TYLf7y1?></g></svg>